G04 #@! TF.GenerationSoftware,KiCad,Pcbnew,5.1.5+dfsg1-2build2*
G04 #@! TF.CreationDate,2020-10-21T19:02:22+02:00*
G04 #@! TF.ProjectId,Pletacka-board,506c6574-6163-46b6-912d-626f6172642e,rev?*
G04 #@! TF.SameCoordinates,Original*
G04 #@! TF.FileFunction,Legend,Bot*
G04 #@! TF.FilePolarity,Positive*
%FSLAX46Y46*%
G04 Gerber Fmt 4.6, Leading zero omitted, Abs format (unit mm)*
G04 Created by KiCad (PCBNEW 5.1.5+dfsg1-2build2) date 2020-10-21 19:02:22*
%MOMM*%
%LPD*%
G04 APERTURE LIST*
%ADD10C,0.150000*%
%ADD11C,0.120000*%
G04 APERTURE END LIST*
D10*
X149018190Y-106386380D02*
X148684857Y-107386380D01*
X148351523Y-106386380D01*
X147446761Y-107291142D02*
X147494380Y-107338761D01*
X147637238Y-107386380D01*
X147732476Y-107386380D01*
X147875333Y-107338761D01*
X147970571Y-107243523D01*
X148018190Y-107148285D01*
X148065809Y-106957809D01*
X148065809Y-106814952D01*
X148018190Y-106624476D01*
X147970571Y-106529238D01*
X147875333Y-106434000D01*
X147732476Y-106386380D01*
X147637238Y-106386380D01*
X147494380Y-106434000D01*
X147446761Y-106481619D01*
X146446761Y-107291142D02*
X146494380Y-107338761D01*
X146637238Y-107386380D01*
X146732476Y-107386380D01*
X146875333Y-107338761D01*
X146970571Y-107243523D01*
X147018190Y-107148285D01*
X147065809Y-106957809D01*
X147065809Y-106814952D01*
X147018190Y-106624476D01*
X146970571Y-106529238D01*
X146875333Y-106434000D01*
X146732476Y-106386380D01*
X146637238Y-106386380D01*
X146494380Y-106434000D01*
X146446761Y-106481619D01*
X146018190Y-107005428D02*
X145256285Y-107005428D01*
X144780095Y-106719714D02*
X144018190Y-107005428D01*
X144780095Y-107291142D01*
X143065809Y-106386380D02*
X143542000Y-106386380D01*
X143589619Y-106862571D01*
X143542000Y-106814952D01*
X143446761Y-106767333D01*
X143208666Y-106767333D01*
X143113428Y-106814952D01*
X143065809Y-106862571D01*
X143018190Y-106957809D01*
X143018190Y-107195904D01*
X143065809Y-107291142D01*
X143113428Y-107338761D01*
X143208666Y-107386380D01*
X143446761Y-107386380D01*
X143542000Y-107338761D01*
X143589619Y-107291142D01*
X142732476Y-106386380D02*
X142399142Y-107386380D01*
X142065809Y-106386380D01*
X146042095Y-64778000D02*
X146137333Y-64730380D01*
X146280190Y-64730380D01*
X146423047Y-64778000D01*
X146518285Y-64873238D01*
X146565904Y-64968476D01*
X146613523Y-65158952D01*
X146613523Y-65301809D01*
X146565904Y-65492285D01*
X146518285Y-65587523D01*
X146423047Y-65682761D01*
X146280190Y-65730380D01*
X146184952Y-65730380D01*
X146042095Y-65682761D01*
X145994476Y-65635142D01*
X145994476Y-65301809D01*
X146184952Y-65301809D01*
X152288095Y-64730380D02*
X151669047Y-64730380D01*
X152002380Y-65111333D01*
X151859523Y-65111333D01*
X151764285Y-65158952D01*
X151716666Y-65206571D01*
X151669047Y-65301809D01*
X151669047Y-65539904D01*
X151716666Y-65635142D01*
X151764285Y-65682761D01*
X151859523Y-65730380D01*
X152145238Y-65730380D01*
X152240476Y-65682761D01*
X152288095Y-65635142D01*
X151383333Y-64730380D02*
X151050000Y-65730380D01*
X150716666Y-64730380D01*
X149716666Y-64730380D02*
X149097619Y-64730380D01*
X149430952Y-65111333D01*
X149288095Y-65111333D01*
X149192857Y-65158952D01*
X149145238Y-65206571D01*
X149097619Y-65301809D01*
X149097619Y-65539904D01*
X149145238Y-65635142D01*
X149192857Y-65682761D01*
X149288095Y-65730380D01*
X149573809Y-65730380D01*
X149669047Y-65682761D01*
X149716666Y-65635142D01*
X148764285Y-64730380D02*
X148145238Y-64730380D01*
X148478571Y-65111333D01*
X148335714Y-65111333D01*
X148240476Y-65158952D01*
X148192857Y-65206571D01*
X148145238Y-65301809D01*
X148145238Y-65539904D01*
X148192857Y-65635142D01*
X148240476Y-65682761D01*
X148335714Y-65730380D01*
X148621428Y-65730380D01*
X148716666Y-65682761D01*
X148764285Y-65635142D01*
X144716666Y-64825619D02*
X144669047Y-64778000D01*
X144573809Y-64730380D01*
X144335714Y-64730380D01*
X144240476Y-64778000D01*
X144192857Y-64825619D01*
X144145238Y-64920857D01*
X144145238Y-65016095D01*
X144192857Y-65158952D01*
X144764285Y-65730380D01*
X144145238Y-65730380D01*
X143240476Y-64730380D02*
X143716666Y-64730380D01*
X143764285Y-65206571D01*
X143716666Y-65158952D01*
X143621428Y-65111333D01*
X143383333Y-65111333D01*
X143288095Y-65158952D01*
X143240476Y-65206571D01*
X143192857Y-65301809D01*
X143192857Y-65539904D01*
X143240476Y-65635142D01*
X143288095Y-65682761D01*
X143383333Y-65730380D01*
X143621428Y-65730380D01*
X143716666Y-65682761D01*
X143764285Y-65635142D01*
X141526190Y-64730380D02*
X142002380Y-64730380D01*
X142050000Y-65206571D01*
X142002380Y-65158952D01*
X141907142Y-65111333D01*
X141669047Y-65111333D01*
X141573809Y-65158952D01*
X141526190Y-65206571D01*
X141478571Y-65301809D01*
X141478571Y-65539904D01*
X141526190Y-65635142D01*
X141573809Y-65682761D01*
X141669047Y-65730380D01*
X141907142Y-65730380D01*
X142002380Y-65682761D01*
X142050000Y-65635142D01*
X141192857Y-64730380D02*
X140859523Y-65730380D01*
X140526190Y-64730380D01*
X156308000Y-87021142D02*
X156308000Y-86121142D01*
X156093714Y-86121142D01*
X155965142Y-86164000D01*
X155879428Y-86249714D01*
X155836571Y-86335428D01*
X155793714Y-86506857D01*
X155793714Y-86635428D01*
X155836571Y-86806857D01*
X155879428Y-86892571D01*
X155965142Y-86978285D01*
X156093714Y-87021142D01*
X156308000Y-87021142D01*
X155065142Y-86978285D02*
X155150857Y-87021142D01*
X155322285Y-87021142D01*
X155408000Y-86978285D01*
X155450857Y-86892571D01*
X155450857Y-86549714D01*
X155408000Y-86464000D01*
X155322285Y-86421142D01*
X155150857Y-86421142D01*
X155065142Y-86464000D01*
X155022285Y-86549714D01*
X155022285Y-86635428D01*
X155450857Y-86721142D01*
X154679428Y-86978285D02*
X154593714Y-87021142D01*
X154422285Y-87021142D01*
X154336571Y-86978285D01*
X154293714Y-86892571D01*
X154293714Y-86849714D01*
X154336571Y-86764000D01*
X154422285Y-86721142D01*
X154550857Y-86721142D01*
X154636571Y-86678285D01*
X154679428Y-86592571D01*
X154679428Y-86549714D01*
X154636571Y-86464000D01*
X154550857Y-86421142D01*
X154422285Y-86421142D01*
X154336571Y-86464000D01*
X153908000Y-87021142D02*
X153908000Y-86421142D01*
X153908000Y-86121142D02*
X153950857Y-86164000D01*
X153908000Y-86206857D01*
X153865142Y-86164000D01*
X153908000Y-86121142D01*
X153908000Y-86206857D01*
X153093714Y-86421142D02*
X153093714Y-87149714D01*
X153136571Y-87235428D01*
X153179428Y-87278285D01*
X153265142Y-87321142D01*
X153393714Y-87321142D01*
X153479428Y-87278285D01*
X153093714Y-86978285D02*
X153179428Y-87021142D01*
X153350857Y-87021142D01*
X153436571Y-86978285D01*
X153479428Y-86935428D01*
X153522285Y-86849714D01*
X153522285Y-86592571D01*
X153479428Y-86506857D01*
X153436571Y-86464000D01*
X153350857Y-86421142D01*
X153179428Y-86421142D01*
X153093714Y-86464000D01*
X152665142Y-86421142D02*
X152665142Y-87021142D01*
X152665142Y-86506857D02*
X152622285Y-86464000D01*
X152536571Y-86421142D01*
X152408000Y-86421142D01*
X152322285Y-86464000D01*
X152279428Y-86549714D01*
X152279428Y-87021142D01*
X151508000Y-86978285D02*
X151593714Y-87021142D01*
X151765142Y-87021142D01*
X151850857Y-86978285D01*
X151893714Y-86892571D01*
X151893714Y-86549714D01*
X151850857Y-86464000D01*
X151765142Y-86421142D01*
X151593714Y-86421142D01*
X151508000Y-86464000D01*
X151465142Y-86549714D01*
X151465142Y-86635428D01*
X151893714Y-86721142D01*
X150693714Y-87021142D02*
X150693714Y-86121142D01*
X150693714Y-86978285D02*
X150779428Y-87021142D01*
X150950857Y-87021142D01*
X151036571Y-86978285D01*
X151079428Y-86935428D01*
X151122285Y-86849714D01*
X151122285Y-86592571D01*
X151079428Y-86506857D01*
X151036571Y-86464000D01*
X150950857Y-86421142D01*
X150779428Y-86421142D01*
X150693714Y-86464000D01*
X149579428Y-87021142D02*
X149579428Y-86121142D01*
X149579428Y-86464000D02*
X149493714Y-86421142D01*
X149322285Y-86421142D01*
X149236571Y-86464000D01*
X149193714Y-86506857D01*
X149150857Y-86592571D01*
X149150857Y-86849714D01*
X149193714Y-86935428D01*
X149236571Y-86978285D01*
X149322285Y-87021142D01*
X149493714Y-87021142D01*
X149579428Y-86978285D01*
X148850857Y-86421142D02*
X148636571Y-87021142D01*
X148422285Y-86421142D02*
X148636571Y-87021142D01*
X148722285Y-87235428D01*
X148765142Y-87278285D01*
X148850857Y-87321142D01*
X147393714Y-87021142D02*
X147393714Y-86121142D01*
X147308000Y-86678285D02*
X147050857Y-87021142D01*
X147050857Y-86421142D02*
X147393714Y-86764000D01*
X146279428Y-86421142D02*
X146279428Y-87021142D01*
X146665142Y-86421142D02*
X146665142Y-86892571D01*
X146622285Y-86978285D01*
X146536571Y-87021142D01*
X146408000Y-87021142D01*
X146322285Y-86978285D01*
X146279428Y-86935428D01*
X145850857Y-87021142D02*
X145850857Y-86121142D01*
X145850857Y-86464000D02*
X145765142Y-86421142D01*
X145593714Y-86421142D01*
X145508000Y-86464000D01*
X145465142Y-86506857D01*
X145422285Y-86592571D01*
X145422285Y-86849714D01*
X145465142Y-86935428D01*
X145508000Y-86978285D01*
X145593714Y-87021142D01*
X145765142Y-87021142D01*
X145850857Y-86978285D01*
X144650857Y-87021142D02*
X144650857Y-86549714D01*
X144693714Y-86464000D01*
X144779428Y-86421142D01*
X144950857Y-86421142D01*
X145036571Y-86464000D01*
X144650857Y-86978285D02*
X144736571Y-87021142D01*
X144950857Y-87021142D01*
X145036571Y-86978285D01*
X145079428Y-86892571D01*
X145079428Y-86806857D01*
X145036571Y-86721142D01*
X144950857Y-86678285D01*
X144736571Y-86678285D01*
X144650857Y-86635428D01*
X143836571Y-87021142D02*
X143836571Y-86549714D01*
X143879428Y-86464000D01*
X143965142Y-86421142D01*
X144136571Y-86421142D01*
X144222285Y-86464000D01*
X143836571Y-86978285D02*
X143922285Y-87021142D01*
X144136571Y-87021142D01*
X144222285Y-86978285D01*
X144265142Y-86892571D01*
X144265142Y-86806857D01*
X144222285Y-86721142D01*
X144136571Y-86678285D01*
X143922285Y-86678285D01*
X143836571Y-86635428D01*
X143408000Y-86421142D02*
X143408000Y-87021142D01*
X143408000Y-86506857D02*
X143365142Y-86464000D01*
X143279428Y-86421142D01*
X143150857Y-86421142D01*
X143065142Y-86464000D01*
X143022285Y-86549714D01*
X143022285Y-87021142D01*
X142208000Y-87021142D02*
X142208000Y-86121142D01*
X142208000Y-86978285D02*
X142293714Y-87021142D01*
X142465142Y-87021142D01*
X142550857Y-86978285D01*
X142593714Y-86935428D01*
X142636571Y-86849714D01*
X142636571Y-86592571D01*
X142593714Y-86506857D01*
X142550857Y-86464000D01*
X142465142Y-86421142D01*
X142293714Y-86421142D01*
X142208000Y-86464000D01*
X141779428Y-87021142D02*
X141779428Y-86421142D01*
X141779428Y-86592571D02*
X141736571Y-86506857D01*
X141693714Y-86464000D01*
X141608000Y-86421142D01*
X141522285Y-86421142D01*
X141308000Y-86421142D02*
X141093714Y-87021142D01*
X140879428Y-86421142D02*
X141093714Y-87021142D01*
X141179428Y-87235428D01*
X141222285Y-87278285D01*
X141308000Y-87321142D01*
X140579428Y-86978285D02*
X140493714Y-87021142D01*
X140322285Y-87021142D01*
X140236571Y-86978285D01*
X140193714Y-86892571D01*
X140193714Y-86849714D01*
X140236571Y-86764000D01*
X140322285Y-86721142D01*
X140450857Y-86721142D01*
X140536571Y-86678285D01*
X140579428Y-86592571D01*
X140579428Y-86549714D01*
X140536571Y-86464000D01*
X140450857Y-86421142D01*
X140322285Y-86421142D01*
X140236571Y-86464000D01*
X139465142Y-86978285D02*
X139550857Y-87021142D01*
X139722285Y-87021142D01*
X139808000Y-86978285D01*
X139850857Y-86892571D01*
X139850857Y-86549714D01*
X139808000Y-86464000D01*
X139722285Y-86421142D01*
X139550857Y-86421142D01*
X139465142Y-86464000D01*
X139422285Y-86549714D01*
X139422285Y-86635428D01*
X139850857Y-86721142D01*
X139036571Y-87021142D02*
X139036571Y-86121142D01*
X138950857Y-86678285D02*
X138693714Y-87021142D01*
X138693714Y-86421142D02*
X139036571Y-86764000D01*
X138307999Y-86935428D02*
X138265142Y-86978285D01*
X138307999Y-87021142D01*
X138350857Y-86978285D01*
X138307999Y-86935428D01*
X138307999Y-87021142D01*
X137493714Y-86978285D02*
X137579428Y-87021142D01*
X137750857Y-87021142D01*
X137836571Y-86978285D01*
X137879428Y-86935428D01*
X137922285Y-86849714D01*
X137922285Y-86592571D01*
X137879428Y-86506857D01*
X137836571Y-86464000D01*
X137750857Y-86421142D01*
X137579428Y-86421142D01*
X137493714Y-86464000D01*
X137193714Y-86421142D02*
X136722285Y-86421142D01*
X137193714Y-87021142D01*
X136722285Y-87021142D01*
X154518285Y-84752571D02*
X154518285Y-83252571D01*
X153946857Y-83252571D01*
X153804000Y-83324000D01*
X153732571Y-83395428D01*
X153661142Y-83538285D01*
X153661142Y-83752571D01*
X153732571Y-83895428D01*
X153804000Y-83966857D01*
X153946857Y-84038285D01*
X154518285Y-84038285D01*
X152804000Y-84752571D02*
X152946857Y-84681142D01*
X153018285Y-84538285D01*
X153018285Y-83252571D01*
X151661142Y-84681142D02*
X151804000Y-84752571D01*
X152089714Y-84752571D01*
X152232571Y-84681142D01*
X152304000Y-84538285D01*
X152304000Y-83966857D01*
X152232571Y-83824000D01*
X152089714Y-83752571D01*
X151804000Y-83752571D01*
X151661142Y-83824000D01*
X151589714Y-83966857D01*
X151589714Y-84109714D01*
X152304000Y-84252571D01*
X151161142Y-83752571D02*
X150589714Y-83752571D01*
X150946857Y-83252571D02*
X150946857Y-84538285D01*
X150875428Y-84681142D01*
X150732571Y-84752571D01*
X150589714Y-84752571D01*
X149446857Y-84752571D02*
X149446857Y-83966857D01*
X149518285Y-83824000D01*
X149661142Y-83752571D01*
X149946857Y-83752571D01*
X150089714Y-83824000D01*
X149446857Y-84681142D02*
X149589714Y-84752571D01*
X149946857Y-84752571D01*
X150089714Y-84681142D01*
X150161142Y-84538285D01*
X150161142Y-84395428D01*
X150089714Y-84252571D01*
X149946857Y-84181142D01*
X149589714Y-84181142D01*
X149446857Y-84109714D01*
X148089714Y-84681142D02*
X148232571Y-84752571D01*
X148518285Y-84752571D01*
X148661142Y-84681142D01*
X148732571Y-84609714D01*
X148804000Y-84466857D01*
X148804000Y-84038285D01*
X148732571Y-83895428D01*
X148661142Y-83824000D01*
X148518285Y-83752571D01*
X148232571Y-83752571D01*
X148089714Y-83824000D01*
X147446857Y-84752571D02*
X147446857Y-83252571D01*
X147304000Y-84181142D02*
X146875428Y-84752571D01*
X146875428Y-83752571D02*
X147446857Y-84324000D01*
X145589714Y-84752571D02*
X145589714Y-83966857D01*
X145661142Y-83824000D01*
X145804000Y-83752571D01*
X146089714Y-83752571D01*
X146232571Y-83824000D01*
X145589714Y-84681142D02*
X145732571Y-84752571D01*
X146089714Y-84752571D01*
X146232571Y-84681142D01*
X146304000Y-84538285D01*
X146304000Y-84395428D01*
X146232571Y-84252571D01*
X146089714Y-84181142D01*
X145732571Y-84181142D01*
X145589714Y-84109714D01*
X143732571Y-84752571D02*
X143732571Y-83252571D01*
X143732571Y-83824000D02*
X143589714Y-83752571D01*
X143304000Y-83752571D01*
X143161142Y-83824000D01*
X143089714Y-83895428D01*
X143018285Y-84038285D01*
X143018285Y-84466857D01*
X143089714Y-84609714D01*
X143161142Y-84681142D01*
X143304000Y-84752571D01*
X143589714Y-84752571D01*
X143732571Y-84681142D01*
X142161142Y-84752571D02*
X142304000Y-84681142D01*
X142375428Y-84609714D01*
X142446857Y-84466857D01*
X142446857Y-84038285D01*
X142375428Y-83895428D01*
X142304000Y-83824000D01*
X142161142Y-83752571D01*
X141946857Y-83752571D01*
X141804000Y-83824000D01*
X141732571Y-83895428D01*
X141661142Y-84038285D01*
X141661142Y-84466857D01*
X141732571Y-84609714D01*
X141804000Y-84681142D01*
X141946857Y-84752571D01*
X142161142Y-84752571D01*
X140375428Y-84752571D02*
X140375428Y-83966857D01*
X140446857Y-83824000D01*
X140589714Y-83752571D01*
X140875428Y-83752571D01*
X141018285Y-83824000D01*
X140375428Y-84681142D02*
X140518285Y-84752571D01*
X140875428Y-84752571D01*
X141018285Y-84681142D01*
X141089714Y-84538285D01*
X141089714Y-84395428D01*
X141018285Y-84252571D01*
X140875428Y-84181142D01*
X140518285Y-84181142D01*
X140375428Y-84109714D01*
X139661142Y-84752571D02*
X139661142Y-83752571D01*
X139661142Y-84038285D02*
X139589714Y-83895428D01*
X139518285Y-83824000D01*
X139375428Y-83752571D01*
X139232571Y-83752571D01*
X138089714Y-84752571D02*
X138089714Y-83252571D01*
X138089714Y-84681142D02*
X138232571Y-84752571D01*
X138518285Y-84752571D01*
X138661142Y-84681142D01*
X138732571Y-84609714D01*
X138804000Y-84466857D01*
X138804000Y-84038285D01*
X138732571Y-83895428D01*
X138661142Y-83824000D01*
X138518285Y-83752571D01*
X138232571Y-83752571D01*
X138089714Y-83824000D01*
D11*
X144018000Y-139700000D02*
X144018000Y-147828000D01*
X154178000Y-139700000D02*
X154178000Y-147828000D01*
D10*
X137894000Y-147673142D02*
X137679714Y-147744571D01*
X137322571Y-147744571D01*
X137179714Y-147673142D01*
X137108285Y-147601714D01*
X137036857Y-147458857D01*
X137036857Y-147316000D01*
X137108285Y-147173142D01*
X137179714Y-147101714D01*
X137322571Y-147030285D01*
X137608285Y-146958857D01*
X137751142Y-146887428D01*
X137822571Y-146816000D01*
X137894000Y-146673142D01*
X137894000Y-146530285D01*
X137822571Y-146387428D01*
X137751142Y-146316000D01*
X137608285Y-146244571D01*
X137251142Y-146244571D01*
X137036857Y-146316000D01*
X136608285Y-146244571D02*
X135751142Y-146244571D01*
X136179714Y-147744571D02*
X136179714Y-146244571D01*
X135251142Y-147744571D02*
X135251142Y-146244571D01*
X134679714Y-146244571D01*
X134536857Y-146316000D01*
X134465428Y-146387428D01*
X134394000Y-146530285D01*
X134394000Y-146744571D01*
X134465428Y-146887428D01*
X134536857Y-146958857D01*
X134679714Y-147030285D01*
X135251142Y-147030285D01*
X141085142Y-146316000D02*
X141228000Y-146244571D01*
X141442285Y-146244571D01*
X141656571Y-146316000D01*
X141799428Y-146458857D01*
X141870857Y-146601714D01*
X141942285Y-146887428D01*
X141942285Y-147101714D01*
X141870857Y-147387428D01*
X141799428Y-147530285D01*
X141656571Y-147673142D01*
X141442285Y-147744571D01*
X141299428Y-147744571D01*
X141085142Y-147673142D01*
X141013714Y-147601714D01*
X141013714Y-147101714D01*
X141299428Y-147101714D01*
X158718000Y-146244571D02*
X158218000Y-147744571D01*
X157718000Y-146244571D01*
X156360857Y-147601714D02*
X156432285Y-147673142D01*
X156646571Y-147744571D01*
X156789428Y-147744571D01*
X157003714Y-147673142D01*
X157146571Y-147530285D01*
X157218000Y-147387428D01*
X157289428Y-147101714D01*
X157289428Y-146887428D01*
X157218000Y-146601714D01*
X157146571Y-146458857D01*
X157003714Y-146316000D01*
X156789428Y-146244571D01*
X156646571Y-146244571D01*
X156432285Y-146316000D01*
X156360857Y-146387428D01*
X154860857Y-147601714D02*
X154932285Y-147673142D01*
X155146571Y-147744571D01*
X155289428Y-147744571D01*
X155503714Y-147673142D01*
X155646571Y-147530285D01*
X155718000Y-147387428D01*
X155789428Y-147101714D01*
X155789428Y-146887428D01*
X155718000Y-146601714D01*
X155646571Y-146458857D01*
X155503714Y-146316000D01*
X155289428Y-146244571D01*
X155146571Y-146244571D01*
X154932285Y-146316000D01*
X154860857Y-146387428D01*
X152566571Y-146958857D02*
X153066571Y-146958857D01*
X153066571Y-147744571D02*
X153066571Y-146244571D01*
X152352285Y-146244571D01*
X151780857Y-147744571D02*
X151780857Y-146244571D01*
X151066571Y-147744571D02*
X151066571Y-146244571D01*
X150209428Y-147744571D01*
X150209428Y-146244571D01*
X146165142Y-146316000D02*
X146308000Y-146244571D01*
X146522285Y-146244571D01*
X146736571Y-146316000D01*
X146879428Y-146458857D01*
X146950857Y-146601714D01*
X147022285Y-146887428D01*
X147022285Y-147101714D01*
X146950857Y-147387428D01*
X146879428Y-147530285D01*
X146736571Y-147673142D01*
X146522285Y-147744571D01*
X146379428Y-147744571D01*
X146165142Y-147673142D01*
X146093714Y-147601714D01*
X146093714Y-147101714D01*
X146379428Y-147101714D01*
D11*
G04 #@! TO.C,JP1*
X141462000Y-108080000D02*
X141462000Y-105280000D01*
X141462000Y-105280000D02*
X139462000Y-105280000D01*
X139462000Y-105280000D02*
X139462000Y-108080000D01*
X139462000Y-108080000D02*
X141462000Y-108080000D01*
G04 #@! TO.C,ESP1*
D10*
X138477523Y-111720380D02*
X137858476Y-111720380D01*
X138191809Y-112101333D01*
X138048952Y-112101333D01*
X137953714Y-112148952D01*
X137906095Y-112196571D01*
X137858476Y-112291809D01*
X137858476Y-112529904D01*
X137906095Y-112625142D01*
X137953714Y-112672761D01*
X138048952Y-112720380D01*
X138334666Y-112720380D01*
X138429904Y-112672761D01*
X138477523Y-112625142D01*
X137525142Y-111720380D02*
X136858476Y-111720380D01*
X137287047Y-112720380D01*
X138477523Y-101560380D02*
X137858476Y-101560380D01*
X138191809Y-101941333D01*
X138048952Y-101941333D01*
X137953714Y-101988952D01*
X137906095Y-102036571D01*
X137858476Y-102131809D01*
X137858476Y-102369904D01*
X137906095Y-102465142D01*
X137953714Y-102512761D01*
X138048952Y-102560380D01*
X138334666Y-102560380D01*
X138429904Y-102512761D01*
X138477523Y-102465142D01*
X137525142Y-101560380D02*
X136906095Y-101560380D01*
X137239428Y-101941333D01*
X137096571Y-101941333D01*
X137001333Y-101988952D01*
X136953714Y-102036571D01*
X136906095Y-102131809D01*
X136906095Y-102369904D01*
X136953714Y-102465142D01*
X137001333Y-102512761D01*
X137096571Y-102560380D01*
X137382285Y-102560380D01*
X137477523Y-102512761D01*
X137525142Y-102465142D01*
X138477523Y-114260380D02*
X137858476Y-114260380D01*
X138191809Y-114641333D01*
X138048952Y-114641333D01*
X137953714Y-114688952D01*
X137906095Y-114736571D01*
X137858476Y-114831809D01*
X137858476Y-115069904D01*
X137906095Y-115165142D01*
X137953714Y-115212761D01*
X138048952Y-115260380D01*
X138334666Y-115260380D01*
X138429904Y-115212761D01*
X138477523Y-115165142D01*
X137001333Y-114260380D02*
X137191809Y-114260380D01*
X137287047Y-114308000D01*
X137334666Y-114355619D01*
X137429904Y-114498476D01*
X137477523Y-114688952D01*
X137477523Y-115069904D01*
X137429904Y-115165142D01*
X137382285Y-115212761D01*
X137287047Y-115260380D01*
X137096571Y-115260380D01*
X137001333Y-115212761D01*
X136953714Y-115165142D01*
X136906095Y-115069904D01*
X136906095Y-114831809D01*
X136953714Y-114736571D01*
X137001333Y-114688952D01*
X137096571Y-114641333D01*
X137287047Y-114641333D01*
X137382285Y-114688952D01*
X137429904Y-114736571D01*
X137477523Y-114831809D01*
X138429904Y-99115619D02*
X138382285Y-99068000D01*
X138287047Y-99020380D01*
X138048952Y-99020380D01*
X137953714Y-99068000D01*
X137906095Y-99115619D01*
X137858476Y-99210857D01*
X137858476Y-99306095D01*
X137906095Y-99448952D01*
X138477523Y-100020380D01*
X137858476Y-100020380D01*
X136953714Y-99020380D02*
X137429904Y-99020380D01*
X137477523Y-99496571D01*
X137429904Y-99448952D01*
X137334666Y-99401333D01*
X137096571Y-99401333D01*
X137001333Y-99448952D01*
X136953714Y-99496571D01*
X136906095Y-99591809D01*
X136906095Y-99829904D01*
X136953714Y-99925142D01*
X137001333Y-99972761D01*
X137096571Y-100020380D01*
X137334666Y-100020380D01*
X137429904Y-99972761D01*
X137477523Y-99925142D01*
X138477523Y-104100380D02*
X137858476Y-104100380D01*
X138191809Y-104481333D01*
X138048952Y-104481333D01*
X137953714Y-104528952D01*
X137906095Y-104576571D01*
X137858476Y-104671809D01*
X137858476Y-104909904D01*
X137906095Y-105005142D01*
X137953714Y-105052761D01*
X138048952Y-105100380D01*
X138334666Y-105100380D01*
X138429904Y-105052761D01*
X138477523Y-105005142D01*
X137477523Y-104195619D02*
X137429904Y-104148000D01*
X137334666Y-104100380D01*
X137096571Y-104100380D01*
X137001333Y-104148000D01*
X136953714Y-104195619D01*
X136906095Y-104290857D01*
X136906095Y-104386095D01*
X136953714Y-104528952D01*
X137525142Y-105100380D01*
X136906095Y-105100380D01*
X138477523Y-106640380D02*
X137858476Y-106640380D01*
X138191809Y-107021333D01*
X138048952Y-107021333D01*
X137953714Y-107068952D01*
X137906095Y-107116571D01*
X137858476Y-107211809D01*
X137858476Y-107449904D01*
X137906095Y-107545142D01*
X137953714Y-107592761D01*
X138048952Y-107640380D01*
X138334666Y-107640380D01*
X138429904Y-107592761D01*
X138477523Y-107545142D01*
X137382285Y-107640380D02*
X137191809Y-107640380D01*
X137096571Y-107592761D01*
X137048952Y-107545142D01*
X136953714Y-107402285D01*
X136906095Y-107211809D01*
X136906095Y-106830857D01*
X136953714Y-106735619D01*
X137001333Y-106688000D01*
X137096571Y-106640380D01*
X137287047Y-106640380D01*
X137382285Y-106688000D01*
X137429904Y-106735619D01*
X137477523Y-106830857D01*
X137477523Y-107068952D01*
X137429904Y-107164190D01*
X137382285Y-107211809D01*
X137287047Y-107259428D01*
X137096571Y-107259428D01*
X137001333Y-107211809D01*
X136953714Y-107164190D01*
X136906095Y-107068952D01*
X138477523Y-109180380D02*
X137858476Y-109180380D01*
X138191809Y-109561333D01*
X138048952Y-109561333D01*
X137953714Y-109608952D01*
X137906095Y-109656571D01*
X137858476Y-109751809D01*
X137858476Y-109989904D01*
X137906095Y-110085142D01*
X137953714Y-110132761D01*
X138048952Y-110180380D01*
X138334666Y-110180380D01*
X138429904Y-110132761D01*
X138477523Y-110085142D01*
X137287047Y-109608952D02*
X137382285Y-109561333D01*
X137429904Y-109513714D01*
X137477523Y-109418476D01*
X137477523Y-109370857D01*
X137429904Y-109275619D01*
X137382285Y-109228000D01*
X137287047Y-109180380D01*
X137096571Y-109180380D01*
X137001333Y-109228000D01*
X136953714Y-109275619D01*
X136906095Y-109370857D01*
X136906095Y-109418476D01*
X136953714Y-109513714D01*
X137001333Y-109561333D01*
X137096571Y-109608952D01*
X137287047Y-109608952D01*
X137382285Y-109656571D01*
X137429904Y-109704190D01*
X137477523Y-109799428D01*
X137477523Y-109989904D01*
X137429904Y-110085142D01*
X137382285Y-110132761D01*
X137287047Y-110180380D01*
X137096571Y-110180380D01*
X137001333Y-110132761D01*
X136953714Y-110085142D01*
X136906095Y-109989904D01*
X136906095Y-109799428D01*
X136953714Y-109704190D01*
X137001333Y-109656571D01*
X137096571Y-109608952D01*
X138429904Y-94035619D02*
X138382285Y-93988000D01*
X138287047Y-93940380D01*
X138048952Y-93940380D01*
X137953714Y-93988000D01*
X137906095Y-94035619D01*
X137858476Y-94130857D01*
X137858476Y-94226095D01*
X137906095Y-94368952D01*
X138477523Y-94940380D01*
X137858476Y-94940380D01*
X137525142Y-93940380D02*
X136858476Y-93940380D01*
X137287047Y-94940380D01*
X139414095Y-116800380D02*
X138795047Y-116800380D01*
X139128380Y-117181333D01*
X138985523Y-117181333D01*
X138890285Y-117228952D01*
X138842666Y-117276571D01*
X138795047Y-117371809D01*
X138795047Y-117609904D01*
X138842666Y-117705142D01*
X138890285Y-117752761D01*
X138985523Y-117800380D01*
X139271238Y-117800380D01*
X139366476Y-117752761D01*
X139414095Y-117705142D01*
X138509333Y-116800380D02*
X138176000Y-117800380D01*
X137842666Y-116800380D01*
X137604571Y-116800380D02*
X136985523Y-116800380D01*
X137318857Y-117181333D01*
X137176000Y-117181333D01*
X137080761Y-117228952D01*
X137033142Y-117276571D01*
X136985523Y-117371809D01*
X136985523Y-117609904D01*
X137033142Y-117705142D01*
X137080761Y-117752761D01*
X137176000Y-117800380D01*
X137461714Y-117800380D01*
X137556952Y-117752761D01*
X137604571Y-117705142D01*
X138429904Y-96575619D02*
X138382285Y-96528000D01*
X138287047Y-96480380D01*
X138048952Y-96480380D01*
X137953714Y-96528000D01*
X137906095Y-96575619D01*
X137858476Y-96670857D01*
X137858476Y-96766095D01*
X137906095Y-96908952D01*
X138477523Y-97480380D01*
X137858476Y-97480380D01*
X137001333Y-96480380D02*
X137191809Y-96480380D01*
X137287047Y-96528000D01*
X137334666Y-96575619D01*
X137429904Y-96718476D01*
X137477523Y-96908952D01*
X137477523Y-97289904D01*
X137429904Y-97385142D01*
X137382285Y-97432761D01*
X137287047Y-97480380D01*
X137096571Y-97480380D01*
X137001333Y-97432761D01*
X136953714Y-97385142D01*
X136906095Y-97289904D01*
X136906095Y-97051809D01*
X136953714Y-96956571D01*
X137001333Y-96908952D01*
X137096571Y-96861333D01*
X137287047Y-96861333D01*
X137382285Y-96908952D01*
X137429904Y-96956571D01*
X137477523Y-97051809D01*
X136898095Y-91448000D02*
X136993333Y-91400380D01*
X137136190Y-91400380D01*
X137279047Y-91448000D01*
X137374285Y-91543238D01*
X137421904Y-91638476D01*
X137469523Y-91828952D01*
X137469523Y-91971809D01*
X137421904Y-92162285D01*
X137374285Y-92257523D01*
X137279047Y-92352761D01*
X137136190Y-92400380D01*
X137040952Y-92400380D01*
X136898095Y-92352761D01*
X136850476Y-92305142D01*
X136850476Y-91971809D01*
X137040952Y-91971809D01*
X137858476Y-88860380D02*
X138334666Y-88860380D01*
X138382285Y-89336571D01*
X138334666Y-89288952D01*
X138239428Y-89241333D01*
X138001333Y-89241333D01*
X137906095Y-89288952D01*
X137858476Y-89336571D01*
X137810857Y-89431809D01*
X137810857Y-89669904D01*
X137858476Y-89765142D01*
X137906095Y-89812761D01*
X138001333Y-89860380D01*
X138239428Y-89860380D01*
X138334666Y-89812761D01*
X138382285Y-89765142D01*
X137525142Y-88860380D02*
X137191809Y-89860380D01*
X136858476Y-88860380D01*
X155694095Y-116848000D02*
X155789333Y-116800380D01*
X155932190Y-116800380D01*
X156075047Y-116848000D01*
X156170285Y-116943238D01*
X156217904Y-117038476D01*
X156265523Y-117228952D01*
X156265523Y-117371809D01*
X156217904Y-117562285D01*
X156170285Y-117657523D01*
X156075047Y-117752761D01*
X155932190Y-117800380D01*
X155836952Y-117800380D01*
X155694095Y-117752761D01*
X155646476Y-117705142D01*
X155646476Y-117371809D01*
X155836952Y-117371809D01*
X155638476Y-100020380D02*
X156209904Y-100020380D01*
X155924190Y-100020380D02*
X155924190Y-99020380D01*
X156019428Y-99163238D01*
X156114666Y-99258476D01*
X156209904Y-99306095D01*
X155305142Y-99020380D02*
X154686095Y-99020380D01*
X155019428Y-99401333D01*
X154876571Y-99401333D01*
X154781333Y-99448952D01*
X154733714Y-99496571D01*
X154686095Y-99591809D01*
X154686095Y-99829904D01*
X154733714Y-99925142D01*
X154781333Y-99972761D01*
X154876571Y-100020380D01*
X155162285Y-100020380D01*
X155257523Y-99972761D01*
X155305142Y-99925142D01*
X155694095Y-93988000D02*
X155789333Y-93940380D01*
X155932190Y-93940380D01*
X156075047Y-93988000D01*
X156170285Y-94083238D01*
X156217904Y-94178476D01*
X156265523Y-94368952D01*
X156265523Y-94511809D01*
X156217904Y-94702285D01*
X156170285Y-94797523D01*
X156075047Y-94892761D01*
X155932190Y-94940380D01*
X155836952Y-94940380D01*
X155694095Y-94892761D01*
X155646476Y-94845142D01*
X155646476Y-94511809D01*
X155836952Y-94511809D01*
X155694095Y-91448000D02*
X155789333Y-91400380D01*
X155932190Y-91400380D01*
X156075047Y-91448000D01*
X156170285Y-91543238D01*
X156217904Y-91638476D01*
X156265523Y-91828952D01*
X156265523Y-91971809D01*
X156217904Y-92162285D01*
X156170285Y-92257523D01*
X156075047Y-92352761D01*
X155932190Y-92400380D01*
X155836952Y-92400380D01*
X155694095Y-92352761D01*
X155646476Y-92305142D01*
X155646476Y-91971809D01*
X155836952Y-91971809D01*
X155694095Y-114308000D02*
X155789333Y-114260380D01*
X155932190Y-114260380D01*
X156075047Y-114308000D01*
X156170285Y-114403238D01*
X156217904Y-114498476D01*
X156265523Y-114688952D01*
X156265523Y-114831809D01*
X156217904Y-115022285D01*
X156170285Y-115117523D01*
X156075047Y-115212761D01*
X155932190Y-115260380D01*
X155836952Y-115260380D01*
X155694095Y-115212761D01*
X155646476Y-115165142D01*
X155646476Y-114831809D01*
X155836952Y-114831809D01*
X155638476Y-102560380D02*
X156209904Y-102560380D01*
X155924190Y-102560380D02*
X155924190Y-101560380D01*
X156019428Y-101703238D01*
X156114666Y-101798476D01*
X156209904Y-101846095D01*
X154733714Y-101560380D02*
X155209904Y-101560380D01*
X155257523Y-102036571D01*
X155209904Y-101988952D01*
X155114666Y-101941333D01*
X154876571Y-101941333D01*
X154781333Y-101988952D01*
X154733714Y-102036571D01*
X154686095Y-102131809D01*
X154686095Y-102369904D01*
X154733714Y-102465142D01*
X154781333Y-102512761D01*
X154876571Y-102560380D01*
X155114666Y-102560380D01*
X155209904Y-102512761D01*
X155257523Y-102465142D01*
X156209904Y-109275619D02*
X156162285Y-109228000D01*
X156067047Y-109180380D01*
X155828952Y-109180380D01*
X155733714Y-109228000D01*
X155686095Y-109275619D01*
X155638476Y-109370857D01*
X155638476Y-109466095D01*
X155686095Y-109608952D01*
X156257523Y-110180380D01*
X155638476Y-110180380D01*
X155257523Y-109275619D02*
X155209904Y-109228000D01*
X155114666Y-109180380D01*
X154876571Y-109180380D01*
X154781333Y-109228000D01*
X154733714Y-109275619D01*
X154686095Y-109370857D01*
X154686095Y-109466095D01*
X154733714Y-109608952D01*
X155305142Y-110180380D01*
X154686095Y-110180380D01*
X155638476Y-97480380D02*
X156209904Y-97480380D01*
X155924190Y-97480380D02*
X155924190Y-96480380D01*
X156019428Y-96623238D01*
X156114666Y-96718476D01*
X156209904Y-96766095D01*
X155257523Y-96575619D02*
X155209904Y-96528000D01*
X155114666Y-96480380D01*
X154876571Y-96480380D01*
X154781333Y-96528000D01*
X154733714Y-96575619D01*
X154686095Y-96670857D01*
X154686095Y-96766095D01*
X154733714Y-96908952D01*
X155305142Y-97480380D01*
X154686095Y-97480380D01*
X156178095Y-88860380D02*
X155559047Y-88860380D01*
X155892380Y-89241333D01*
X155749523Y-89241333D01*
X155654285Y-89288952D01*
X155606666Y-89336571D01*
X155559047Y-89431809D01*
X155559047Y-89669904D01*
X155606666Y-89765142D01*
X155654285Y-89812761D01*
X155749523Y-89860380D01*
X156035238Y-89860380D01*
X156130476Y-89812761D01*
X156178095Y-89765142D01*
X155273333Y-88860380D02*
X154940000Y-89860380D01*
X154606666Y-88860380D01*
X154368571Y-88860380D02*
X153749523Y-88860380D01*
X154082857Y-89241333D01*
X153940000Y-89241333D01*
X153844761Y-89288952D01*
X153797142Y-89336571D01*
X153749523Y-89431809D01*
X153749523Y-89669904D01*
X153797142Y-89765142D01*
X153844761Y-89812761D01*
X153940000Y-89860380D01*
X154225714Y-89860380D01*
X154320952Y-89812761D01*
X154368571Y-89765142D01*
X156209904Y-111815619D02*
X156162285Y-111768000D01*
X156067047Y-111720380D01*
X155828952Y-111720380D01*
X155733714Y-111768000D01*
X155686095Y-111815619D01*
X155638476Y-111910857D01*
X155638476Y-112006095D01*
X155686095Y-112148952D01*
X156257523Y-112720380D01*
X155638476Y-112720380D01*
X154686095Y-112720380D02*
X155257523Y-112720380D01*
X154971809Y-112720380D02*
X154971809Y-111720380D01*
X155067047Y-111863238D01*
X155162285Y-111958476D01*
X155257523Y-112006095D01*
X156241714Y-104195619D02*
X156194095Y-104148000D01*
X156098857Y-104100380D01*
X155860761Y-104100380D01*
X155765523Y-104148000D01*
X155717904Y-104195619D01*
X155670285Y-104290857D01*
X155670285Y-104386095D01*
X155717904Y-104528952D01*
X156289333Y-105100380D01*
X155670285Y-105100380D01*
X155638476Y-107640380D02*
X156209904Y-107640380D01*
X155924190Y-107640380D02*
X155924190Y-106640380D01*
X156019428Y-106783238D01*
X156114666Y-106878476D01*
X156209904Y-106926095D01*
X155305142Y-106640380D02*
X154638476Y-106640380D01*
X155067047Y-107640380D01*
G04 #@! TD*
M02*
