G04 #@! TF.GenerationSoftware,KiCad,Pcbnew,5.1.5+dfsg1-2build2*
G04 #@! TF.CreationDate,2020-10-21T19:02:22+02:00*
G04 #@! TF.ProjectId,Pletacka-board,506c6574-6163-46b6-912d-626f6172642e,rev?*
G04 #@! TF.SameCoordinates,Original*
G04 #@! TF.FileFunction,Legend,Top*
G04 #@! TF.FilePolarity,Positive*
%FSLAX46Y46*%
G04 Gerber Fmt 4.6, Leading zero omitted, Abs format (unit mm)*
G04 Created by KiCad (PCBNEW 5.1.5+dfsg1-2build2) date 2020-10-21 19:02:22*
%MOMM*%
%LPD*%
G04 APERTURE LIST*
%ADD10C,0.150000*%
%ADD11C,0.127000*%
%ADD12C,0.200000*%
%ADD13C,0.120000*%
%ADD14C,0.400000*%
%ADD15C,0.254000*%
G04 APERTURE END LIST*
D10*
X153860666Y-62428380D02*
X153860666Y-61428380D01*
X154241619Y-61428380D01*
X154336857Y-61476000D01*
X154384476Y-61523619D01*
X154432095Y-61618857D01*
X154432095Y-61761714D01*
X154384476Y-61856952D01*
X154336857Y-61904571D01*
X154241619Y-61952190D01*
X153860666Y-61952190D01*
X154765428Y-61428380D02*
X155003523Y-62428380D01*
X155194000Y-61714095D01*
X155384476Y-62428380D01*
X155622571Y-61428380D01*
X156574952Y-62428380D02*
X156241619Y-61952190D01*
X156003523Y-62428380D02*
X156003523Y-61428380D01*
X156384476Y-61428380D01*
X156479714Y-61476000D01*
X156527333Y-61523619D01*
X156574952Y-61618857D01*
X156574952Y-61761714D01*
X156527333Y-61856952D01*
X156479714Y-61904571D01*
X156384476Y-61952190D01*
X156003523Y-61952190D01*
X159726380Y-72588000D02*
X160535904Y-72588000D01*
X160631142Y-72540380D01*
X160678761Y-72492761D01*
X160726380Y-72397523D01*
X160726380Y-72207047D01*
X160678761Y-72111809D01*
X160631142Y-72064190D01*
X160535904Y-72016571D01*
X159726380Y-72016571D01*
X160678761Y-71588000D02*
X160726380Y-71445142D01*
X160726380Y-71207047D01*
X160678761Y-71111809D01*
X160631142Y-71064190D01*
X160535904Y-71016571D01*
X160440666Y-71016571D01*
X160345428Y-71064190D01*
X160297809Y-71111809D01*
X160250190Y-71207047D01*
X160202571Y-71397523D01*
X160154952Y-71492761D01*
X160107333Y-71540380D01*
X160012095Y-71588000D01*
X159916857Y-71588000D01*
X159821619Y-71540380D01*
X159774000Y-71492761D01*
X159726380Y-71397523D01*
X159726380Y-71159428D01*
X159774000Y-71016571D01*
X160202571Y-70588000D02*
X160202571Y-70254666D01*
X160726380Y-70111809D02*
X160726380Y-70588000D01*
X159726380Y-70588000D01*
X159726380Y-70111809D01*
X160726380Y-69111809D02*
X160250190Y-69445142D01*
X160726380Y-69683238D02*
X159726380Y-69683238D01*
X159726380Y-69302285D01*
X159774000Y-69207047D01*
X159821619Y-69159428D01*
X159916857Y-69111809D01*
X160059714Y-69111809D01*
X160154952Y-69159428D01*
X160202571Y-69207047D01*
X160250190Y-69302285D01*
X160250190Y-69683238D01*
X160202571Y-67588000D02*
X160250190Y-67445142D01*
X160297809Y-67397523D01*
X160393047Y-67349904D01*
X160535904Y-67349904D01*
X160631142Y-67397523D01*
X160678761Y-67445142D01*
X160726380Y-67540380D01*
X160726380Y-67921333D01*
X159726380Y-67921333D01*
X159726380Y-67588000D01*
X159774000Y-67492761D01*
X159821619Y-67445142D01*
X159916857Y-67397523D01*
X160012095Y-67397523D01*
X160107333Y-67445142D01*
X160154952Y-67492761D01*
X160202571Y-67588000D01*
X160202571Y-67921333D01*
X159726380Y-67064190D02*
X159726380Y-66492761D01*
X160726380Y-66778476D02*
X159726380Y-66778476D01*
X160726380Y-66159428D02*
X159726380Y-66159428D01*
X160726380Y-65588000D01*
X159726380Y-65588000D01*
X132135619Y-68397619D02*
X132611809Y-68064285D01*
X132135619Y-67826190D02*
X133135619Y-67826190D01*
X133135619Y-68207142D01*
X133088000Y-68302380D01*
X133040380Y-68350000D01*
X132945142Y-68397619D01*
X132802285Y-68397619D01*
X132707047Y-68350000D01*
X132659428Y-68302380D01*
X132611809Y-68207142D01*
X132611809Y-67826190D01*
X132659428Y-68826190D02*
X132659428Y-69159523D01*
X132135619Y-69302380D02*
X132135619Y-68826190D01*
X133135619Y-68826190D01*
X133135619Y-69302380D01*
X132183238Y-69683333D02*
X132135619Y-69826190D01*
X132135619Y-70064285D01*
X132183238Y-70159523D01*
X132230857Y-70207142D01*
X132326095Y-70254761D01*
X132421333Y-70254761D01*
X132516571Y-70207142D01*
X132564190Y-70159523D01*
X132611809Y-70064285D01*
X132659428Y-69873809D01*
X132707047Y-69778571D01*
X132754666Y-69730952D01*
X132849904Y-69683333D01*
X132945142Y-69683333D01*
X133040380Y-69730952D01*
X133088000Y-69778571D01*
X133135619Y-69873809D01*
X133135619Y-70111904D01*
X133088000Y-70254761D01*
X132659428Y-70683333D02*
X132659428Y-71016666D01*
X132135619Y-71159523D02*
X132135619Y-70683333D01*
X133135619Y-70683333D01*
X133135619Y-71159523D01*
X133135619Y-71445238D02*
X133135619Y-72016666D01*
X132135619Y-71730952D02*
X133135619Y-71730952D01*
X146565904Y-64778000D02*
X146470666Y-64730380D01*
X146327809Y-64730380D01*
X146184952Y-64778000D01*
X146089714Y-64873238D01*
X146042095Y-64968476D01*
X145994476Y-65158952D01*
X145994476Y-65301809D01*
X146042095Y-65492285D01*
X146089714Y-65587523D01*
X146184952Y-65682761D01*
X146327809Y-65730380D01*
X146423047Y-65730380D01*
X146565904Y-65682761D01*
X146613523Y-65635142D01*
X146613523Y-65301809D01*
X146423047Y-65301809D01*
X141018285Y-64730380D02*
X140542095Y-64730380D01*
X140494476Y-65206571D01*
X140542095Y-65158952D01*
X140637333Y-65111333D01*
X140875428Y-65111333D01*
X140970666Y-65158952D01*
X141018285Y-65206571D01*
X141065904Y-65301809D01*
X141065904Y-65539904D01*
X141018285Y-65635142D01*
X140970666Y-65682761D01*
X140875428Y-65730380D01*
X140637333Y-65730380D01*
X140542095Y-65682761D01*
X140494476Y-65635142D01*
X141351619Y-64730380D02*
X141684952Y-65730380D01*
X142018285Y-64730380D01*
X143065904Y-64825619D02*
X143113523Y-64778000D01*
X143208761Y-64730380D01*
X143446857Y-64730380D01*
X143542095Y-64778000D01*
X143589714Y-64825619D01*
X143637333Y-64920857D01*
X143637333Y-65016095D01*
X143589714Y-65158952D01*
X143018285Y-65730380D01*
X143637333Y-65730380D01*
X144542095Y-64730380D02*
X144065904Y-64730380D01*
X144018285Y-65206571D01*
X144065904Y-65158952D01*
X144161142Y-65111333D01*
X144399238Y-65111333D01*
X144494476Y-65158952D01*
X144542095Y-65206571D01*
X144589714Y-65301809D01*
X144589714Y-65539904D01*
X144542095Y-65635142D01*
X144494476Y-65682761D01*
X144399238Y-65730380D01*
X144161142Y-65730380D01*
X144065904Y-65682761D01*
X144018285Y-65635142D01*
X147970666Y-64730380D02*
X148589714Y-64730380D01*
X148256380Y-65111333D01*
X148399238Y-65111333D01*
X148494476Y-65158952D01*
X148542095Y-65206571D01*
X148589714Y-65301809D01*
X148589714Y-65539904D01*
X148542095Y-65635142D01*
X148494476Y-65682761D01*
X148399238Y-65730380D01*
X148113523Y-65730380D01*
X148018285Y-65682761D01*
X147970666Y-65635142D01*
X148923047Y-64730380D02*
X149542095Y-64730380D01*
X149208761Y-65111333D01*
X149351619Y-65111333D01*
X149446857Y-65158952D01*
X149494476Y-65206571D01*
X149542095Y-65301809D01*
X149542095Y-65539904D01*
X149494476Y-65635142D01*
X149446857Y-65682761D01*
X149351619Y-65730380D01*
X149065904Y-65730380D01*
X148970666Y-65682761D01*
X148923047Y-65635142D01*
X150637333Y-64730380D02*
X151256380Y-64730380D01*
X150923047Y-65111333D01*
X151065904Y-65111333D01*
X151161142Y-65158952D01*
X151208761Y-65206571D01*
X151256380Y-65301809D01*
X151256380Y-65539904D01*
X151208761Y-65635142D01*
X151161142Y-65682761D01*
X151065904Y-65730380D01*
X150780190Y-65730380D01*
X150684952Y-65682761D01*
X150637333Y-65635142D01*
X151542095Y-64730380D02*
X151875428Y-65730380D01*
X152208761Y-64730380D01*
X139992857Y-90197904D02*
X139992857Y-89397904D01*
X140335714Y-90197904D02*
X140335714Y-89778857D01*
X140297619Y-89702666D01*
X140221428Y-89664571D01*
X140107142Y-89664571D01*
X140030952Y-89702666D01*
X139992857Y-89740761D01*
X140602380Y-89664571D02*
X140907142Y-89664571D01*
X140716666Y-89397904D02*
X140716666Y-90083619D01*
X140754761Y-90159809D01*
X140830952Y-90197904D01*
X140907142Y-90197904D01*
X141059523Y-89664571D02*
X141364285Y-89664571D01*
X141173809Y-89397904D02*
X141173809Y-90083619D01*
X141211904Y-90159809D01*
X141288095Y-90197904D01*
X141364285Y-90197904D01*
X141630952Y-89664571D02*
X141630952Y-90464571D01*
X141630952Y-89702666D02*
X141707142Y-89664571D01*
X141859523Y-89664571D01*
X141935714Y-89702666D01*
X141973809Y-89740761D01*
X142011904Y-89816952D01*
X142011904Y-90045523D01*
X141973809Y-90121714D01*
X141935714Y-90159809D01*
X141859523Y-90197904D01*
X141707142Y-90197904D01*
X141630952Y-90159809D01*
X142316666Y-90159809D02*
X142392857Y-90197904D01*
X142545238Y-90197904D01*
X142621428Y-90159809D01*
X142659523Y-90083619D01*
X142659523Y-90045523D01*
X142621428Y-89969333D01*
X142545238Y-89931238D01*
X142430952Y-89931238D01*
X142354761Y-89893142D01*
X142316666Y-89816952D01*
X142316666Y-89778857D01*
X142354761Y-89702666D01*
X142430952Y-89664571D01*
X142545238Y-89664571D01*
X142621428Y-89702666D01*
X143002380Y-90121714D02*
X143040476Y-90159809D01*
X143002380Y-90197904D01*
X142964285Y-90159809D01*
X143002380Y-90121714D01*
X143002380Y-90197904D01*
X143002380Y-89702666D02*
X143040476Y-89740761D01*
X143002380Y-89778857D01*
X142964285Y-89740761D01*
X143002380Y-89702666D01*
X143002380Y-89778857D01*
X143954761Y-89359809D02*
X143269047Y-90388380D01*
X144792857Y-89359809D02*
X144107142Y-90388380D01*
X145402380Y-89664571D02*
X145402380Y-90312190D01*
X145364285Y-90388380D01*
X145326190Y-90426476D01*
X145250000Y-90464571D01*
X145135714Y-90464571D01*
X145059523Y-90426476D01*
X145402380Y-90159809D02*
X145326190Y-90197904D01*
X145173809Y-90197904D01*
X145097619Y-90159809D01*
X145059523Y-90121714D01*
X145021428Y-90045523D01*
X145021428Y-89816952D01*
X145059523Y-89740761D01*
X145097619Y-89702666D01*
X145173809Y-89664571D01*
X145326190Y-89664571D01*
X145402380Y-89702666D01*
X145783333Y-90197904D02*
X145783333Y-89664571D01*
X145783333Y-89397904D02*
X145745238Y-89436000D01*
X145783333Y-89474095D01*
X145821428Y-89436000D01*
X145783333Y-89397904D01*
X145783333Y-89474095D01*
X146050000Y-89664571D02*
X146354761Y-89664571D01*
X146164285Y-89397904D02*
X146164285Y-90083619D01*
X146202380Y-90159809D01*
X146278571Y-90197904D01*
X146354761Y-90197904D01*
X146621428Y-90197904D02*
X146621428Y-89397904D01*
X146964285Y-90197904D02*
X146964285Y-89778857D01*
X146926190Y-89702666D01*
X146850000Y-89664571D01*
X146735714Y-89664571D01*
X146659523Y-89702666D01*
X146621428Y-89740761D01*
X147688095Y-89664571D02*
X147688095Y-90197904D01*
X147345238Y-89664571D02*
X147345238Y-90083619D01*
X147383333Y-90159809D01*
X147459523Y-90197904D01*
X147573809Y-90197904D01*
X147650000Y-90159809D01*
X147688095Y-90121714D01*
X148069047Y-90197904D02*
X148069047Y-89397904D01*
X148069047Y-89702666D02*
X148145238Y-89664571D01*
X148297619Y-89664571D01*
X148373809Y-89702666D01*
X148411904Y-89740761D01*
X148450000Y-89816952D01*
X148450000Y-90045523D01*
X148411904Y-90121714D01*
X148373809Y-90159809D01*
X148297619Y-90197904D01*
X148145238Y-90197904D01*
X148069047Y-90159809D01*
X148792857Y-90121714D02*
X148830952Y-90159809D01*
X148792857Y-90197904D01*
X148754761Y-90159809D01*
X148792857Y-90121714D01*
X148792857Y-90197904D01*
X149516666Y-90159809D02*
X149440476Y-90197904D01*
X149288095Y-90197904D01*
X149211904Y-90159809D01*
X149173809Y-90121714D01*
X149135714Y-90045523D01*
X149135714Y-89816952D01*
X149173809Y-89740761D01*
X149211904Y-89702666D01*
X149288095Y-89664571D01*
X149440476Y-89664571D01*
X149516666Y-89702666D01*
X149973809Y-90197904D02*
X149897619Y-90159809D01*
X149859523Y-90121714D01*
X149821428Y-90045523D01*
X149821428Y-89816952D01*
X149859523Y-89740761D01*
X149897619Y-89702666D01*
X149973809Y-89664571D01*
X150088095Y-89664571D01*
X150164285Y-89702666D01*
X150202380Y-89740761D01*
X150240476Y-89816952D01*
X150240476Y-90045523D01*
X150202380Y-90121714D01*
X150164285Y-90159809D01*
X150088095Y-90197904D01*
X149973809Y-90197904D01*
X150583333Y-90197904D02*
X150583333Y-89664571D01*
X150583333Y-89740761D02*
X150621428Y-89702666D01*
X150697619Y-89664571D01*
X150811904Y-89664571D01*
X150888095Y-89702666D01*
X150926190Y-89778857D01*
X150926190Y-90197904D01*
X150926190Y-89778857D02*
X150964285Y-89702666D01*
X151040476Y-89664571D01*
X151154761Y-89664571D01*
X151230952Y-89702666D01*
X151269047Y-89778857D01*
X151269047Y-90197904D01*
X152221428Y-89359809D02*
X151535714Y-90388380D01*
X141897619Y-91547904D02*
X141897619Y-90747904D01*
X142202380Y-90747904D01*
X142278571Y-90786000D01*
X142316666Y-90824095D01*
X142354761Y-90900285D01*
X142354761Y-91014571D01*
X142316666Y-91090761D01*
X142278571Y-91128857D01*
X142202380Y-91166952D01*
X141897619Y-91166952D01*
X142811904Y-91547904D02*
X142735714Y-91509809D01*
X142697619Y-91433619D01*
X142697619Y-90747904D01*
X143421428Y-91509809D02*
X143345238Y-91547904D01*
X143192857Y-91547904D01*
X143116666Y-91509809D01*
X143078571Y-91433619D01*
X143078571Y-91128857D01*
X143116666Y-91052666D01*
X143192857Y-91014571D01*
X143345238Y-91014571D01*
X143421428Y-91052666D01*
X143459523Y-91128857D01*
X143459523Y-91205047D01*
X143078571Y-91281238D01*
X143688095Y-91014571D02*
X143992857Y-91014571D01*
X143802380Y-90747904D02*
X143802380Y-91433619D01*
X143840476Y-91509809D01*
X143916666Y-91547904D01*
X143992857Y-91547904D01*
X144602380Y-91547904D02*
X144602380Y-91128857D01*
X144564285Y-91052666D01*
X144488095Y-91014571D01*
X144335714Y-91014571D01*
X144259523Y-91052666D01*
X144602380Y-91509809D02*
X144526190Y-91547904D01*
X144335714Y-91547904D01*
X144259523Y-91509809D01*
X144221428Y-91433619D01*
X144221428Y-91357428D01*
X144259523Y-91281238D01*
X144335714Y-91243142D01*
X144526190Y-91243142D01*
X144602380Y-91205047D01*
X145326190Y-91509809D02*
X145250000Y-91547904D01*
X145097619Y-91547904D01*
X145021428Y-91509809D01*
X144983333Y-91471714D01*
X144945238Y-91395523D01*
X144945238Y-91166952D01*
X144983333Y-91090761D01*
X145021428Y-91052666D01*
X145097619Y-91014571D01*
X145250000Y-91014571D01*
X145326190Y-91052666D01*
X145669047Y-91547904D02*
X145669047Y-90747904D01*
X145745238Y-91243142D02*
X145973809Y-91547904D01*
X145973809Y-91014571D02*
X145669047Y-91319333D01*
X146659523Y-91547904D02*
X146659523Y-91128857D01*
X146621428Y-91052666D01*
X146545238Y-91014571D01*
X146392857Y-91014571D01*
X146316666Y-91052666D01*
X146659523Y-91509809D02*
X146583333Y-91547904D01*
X146392857Y-91547904D01*
X146316666Y-91509809D01*
X146278571Y-91433619D01*
X146278571Y-91357428D01*
X146316666Y-91281238D01*
X146392857Y-91243142D01*
X146583333Y-91243142D01*
X146659523Y-91205047D01*
X147040476Y-91243142D02*
X147650000Y-91243142D01*
X148030952Y-91547904D02*
X148030952Y-90747904D01*
X148526190Y-91547904D02*
X148450000Y-91509809D01*
X148411904Y-91471714D01*
X148373809Y-91395523D01*
X148373809Y-91166952D01*
X148411904Y-91090761D01*
X148450000Y-91052666D01*
X148526190Y-91014571D01*
X148640476Y-91014571D01*
X148716666Y-91052666D01*
X148754761Y-91090761D01*
X148792857Y-91166952D01*
X148792857Y-91395523D01*
X148754761Y-91471714D01*
X148716666Y-91509809D01*
X148640476Y-91547904D01*
X148526190Y-91547904D01*
X149021428Y-90747904D02*
X149478571Y-90747904D01*
X149250000Y-91547904D02*
X149250000Y-90747904D01*
X150316666Y-90709809D02*
X149630952Y-91738380D01*
X141478571Y-92897904D02*
X141478571Y-92097904D01*
X141783333Y-92097904D01*
X141859523Y-92136000D01*
X141897619Y-92174095D01*
X141935714Y-92250285D01*
X141935714Y-92364571D01*
X141897619Y-92440761D01*
X141859523Y-92478857D01*
X141783333Y-92516952D01*
X141478571Y-92516952D01*
X142392857Y-92897904D02*
X142316666Y-92859809D01*
X142278571Y-92783619D01*
X142278571Y-92097904D01*
X143002380Y-92859809D02*
X142926190Y-92897904D01*
X142773809Y-92897904D01*
X142697619Y-92859809D01*
X142659523Y-92783619D01*
X142659523Y-92478857D01*
X142697619Y-92402666D01*
X142773809Y-92364571D01*
X142926190Y-92364571D01*
X143002380Y-92402666D01*
X143040476Y-92478857D01*
X143040476Y-92555047D01*
X142659523Y-92631238D01*
X143269047Y-92364571D02*
X143573809Y-92364571D01*
X143383333Y-92097904D02*
X143383333Y-92783619D01*
X143421428Y-92859809D01*
X143497619Y-92897904D01*
X143573809Y-92897904D01*
X144183333Y-92897904D02*
X144183333Y-92478857D01*
X144145238Y-92402666D01*
X144069047Y-92364571D01*
X143916666Y-92364571D01*
X143840476Y-92402666D01*
X144183333Y-92859809D02*
X144107142Y-92897904D01*
X143916666Y-92897904D01*
X143840476Y-92859809D01*
X143802380Y-92783619D01*
X143802380Y-92707428D01*
X143840476Y-92631238D01*
X143916666Y-92593142D01*
X144107142Y-92593142D01*
X144183333Y-92555047D01*
X144907142Y-92859809D02*
X144830952Y-92897904D01*
X144678571Y-92897904D01*
X144602380Y-92859809D01*
X144564285Y-92821714D01*
X144526190Y-92745523D01*
X144526190Y-92516952D01*
X144564285Y-92440761D01*
X144602380Y-92402666D01*
X144678571Y-92364571D01*
X144830952Y-92364571D01*
X144907142Y-92402666D01*
X145250000Y-92897904D02*
X145250000Y-92097904D01*
X145326190Y-92593142D02*
X145554761Y-92897904D01*
X145554761Y-92364571D02*
X145250000Y-92669333D01*
X146240476Y-92897904D02*
X146240476Y-92478857D01*
X146202380Y-92402666D01*
X146126190Y-92364571D01*
X145973809Y-92364571D01*
X145897619Y-92402666D01*
X146240476Y-92859809D02*
X146164285Y-92897904D01*
X145973809Y-92897904D01*
X145897619Y-92859809D01*
X145859523Y-92783619D01*
X145859523Y-92707428D01*
X145897619Y-92631238D01*
X145973809Y-92593142D01*
X146164285Y-92593142D01*
X146240476Y-92555047D01*
X146621428Y-92593142D02*
X147230952Y-92593142D01*
X147611904Y-92897904D02*
X147611904Y-92097904D01*
X147611904Y-92402666D02*
X147688095Y-92364571D01*
X147840476Y-92364571D01*
X147916666Y-92402666D01*
X147954761Y-92440761D01*
X147992857Y-92516952D01*
X147992857Y-92745523D01*
X147954761Y-92821714D01*
X147916666Y-92859809D01*
X147840476Y-92897904D01*
X147688095Y-92897904D01*
X147611904Y-92859809D01*
X148449999Y-92897904D02*
X148373809Y-92859809D01*
X148335714Y-92821714D01*
X148297619Y-92745523D01*
X148297619Y-92516952D01*
X148335714Y-92440761D01*
X148373809Y-92402666D01*
X148449999Y-92364571D01*
X148564285Y-92364571D01*
X148640476Y-92402666D01*
X148678571Y-92440761D01*
X148716666Y-92516952D01*
X148716666Y-92745523D01*
X148678571Y-92821714D01*
X148640476Y-92859809D01*
X148564285Y-92897904D01*
X148449999Y-92897904D01*
X149402380Y-92897904D02*
X149402380Y-92478857D01*
X149364285Y-92402666D01*
X149288095Y-92364571D01*
X149135714Y-92364571D01*
X149059523Y-92402666D01*
X149402380Y-92859809D02*
X149326190Y-92897904D01*
X149135714Y-92897904D01*
X149059523Y-92859809D01*
X149021428Y-92783619D01*
X149021428Y-92707428D01*
X149059523Y-92631238D01*
X149135714Y-92593142D01*
X149326190Y-92593142D01*
X149402380Y-92555047D01*
X149783333Y-92897904D02*
X149783333Y-92364571D01*
X149783333Y-92516952D02*
X149821428Y-92440761D01*
X149859523Y-92402666D01*
X149935714Y-92364571D01*
X150011904Y-92364571D01*
X150621428Y-92897904D02*
X150621428Y-92097904D01*
X150621428Y-92859809D02*
X150545238Y-92897904D01*
X150392857Y-92897904D01*
X150316666Y-92859809D01*
X150278571Y-92821714D01*
X150240476Y-92745523D01*
X150240476Y-92516952D01*
X150278571Y-92440761D01*
X150316666Y-92402666D01*
X150392857Y-92364571D01*
X150545238Y-92364571D01*
X150621428Y-92402666D01*
X136807999Y-87021142D02*
X136807999Y-86121142D01*
X137022285Y-86121142D01*
X137150857Y-86164000D01*
X137236571Y-86249714D01*
X137279428Y-86335428D01*
X137322285Y-86506857D01*
X137322285Y-86635428D01*
X137279428Y-86806857D01*
X137236571Y-86892571D01*
X137150857Y-86978285D01*
X137022285Y-87021142D01*
X136807999Y-87021142D01*
X138050857Y-86978285D02*
X137965142Y-87021142D01*
X137793714Y-87021142D01*
X137707999Y-86978285D01*
X137665142Y-86892571D01*
X137665142Y-86549714D01*
X137707999Y-86464000D01*
X137793714Y-86421142D01*
X137965142Y-86421142D01*
X138050857Y-86464000D01*
X138093714Y-86549714D01*
X138093714Y-86635428D01*
X137665142Y-86721142D01*
X138436571Y-86978285D02*
X138522285Y-87021142D01*
X138693714Y-87021142D01*
X138779428Y-86978285D01*
X138822285Y-86892571D01*
X138822285Y-86849714D01*
X138779428Y-86764000D01*
X138693714Y-86721142D01*
X138565142Y-86721142D01*
X138479428Y-86678285D01*
X138436571Y-86592571D01*
X138436571Y-86549714D01*
X138479428Y-86464000D01*
X138565142Y-86421142D01*
X138693714Y-86421142D01*
X138779428Y-86464000D01*
X139207999Y-87021142D02*
X139207999Y-86421142D01*
X139207999Y-86121142D02*
X139165142Y-86164000D01*
X139207999Y-86206857D01*
X139250857Y-86164000D01*
X139207999Y-86121142D01*
X139207999Y-86206857D01*
X140022285Y-86421142D02*
X140022285Y-87149714D01*
X139979428Y-87235428D01*
X139936571Y-87278285D01*
X139850857Y-87321142D01*
X139722285Y-87321142D01*
X139636571Y-87278285D01*
X140022285Y-86978285D02*
X139936571Y-87021142D01*
X139765142Y-87021142D01*
X139679428Y-86978285D01*
X139636571Y-86935428D01*
X139593714Y-86849714D01*
X139593714Y-86592571D01*
X139636571Y-86506857D01*
X139679428Y-86464000D01*
X139765142Y-86421142D01*
X139936571Y-86421142D01*
X140022285Y-86464000D01*
X140450857Y-86421142D02*
X140450857Y-87021142D01*
X140450857Y-86506857D02*
X140493714Y-86464000D01*
X140579428Y-86421142D01*
X140707999Y-86421142D01*
X140793714Y-86464000D01*
X140836571Y-86549714D01*
X140836571Y-87021142D01*
X141607999Y-86978285D02*
X141522285Y-87021142D01*
X141350857Y-87021142D01*
X141265142Y-86978285D01*
X141222285Y-86892571D01*
X141222285Y-86549714D01*
X141265142Y-86464000D01*
X141350857Y-86421142D01*
X141522285Y-86421142D01*
X141607999Y-86464000D01*
X141650857Y-86549714D01*
X141650857Y-86635428D01*
X141222285Y-86721142D01*
X142422285Y-87021142D02*
X142422285Y-86121142D01*
X142422285Y-86978285D02*
X142336571Y-87021142D01*
X142165142Y-87021142D01*
X142079428Y-86978285D01*
X142036571Y-86935428D01*
X141993714Y-86849714D01*
X141993714Y-86592571D01*
X142036571Y-86506857D01*
X142079428Y-86464000D01*
X142165142Y-86421142D01*
X142336571Y-86421142D01*
X142422285Y-86464000D01*
X143536571Y-87021142D02*
X143536571Y-86121142D01*
X143536571Y-86464000D02*
X143622285Y-86421142D01*
X143793714Y-86421142D01*
X143879428Y-86464000D01*
X143922285Y-86506857D01*
X143965142Y-86592571D01*
X143965142Y-86849714D01*
X143922285Y-86935428D01*
X143879428Y-86978285D01*
X143793714Y-87021142D01*
X143622285Y-87021142D01*
X143536571Y-86978285D01*
X144265142Y-86421142D02*
X144479428Y-87021142D01*
X144693714Y-86421142D02*
X144479428Y-87021142D01*
X144393714Y-87235428D01*
X144350857Y-87278285D01*
X144265142Y-87321142D01*
X145722285Y-87021142D02*
X145722285Y-86121142D01*
X145807999Y-86678285D02*
X146065142Y-87021142D01*
X146065142Y-86421142D02*
X145722285Y-86764000D01*
X146836571Y-86421142D02*
X146836571Y-87021142D01*
X146450857Y-86421142D02*
X146450857Y-86892571D01*
X146493714Y-86978285D01*
X146579428Y-87021142D01*
X146707999Y-87021142D01*
X146793714Y-86978285D01*
X146836571Y-86935428D01*
X147265142Y-87021142D02*
X147265142Y-86121142D01*
X147265142Y-86464000D02*
X147350857Y-86421142D01*
X147522285Y-86421142D01*
X147607999Y-86464000D01*
X147650857Y-86506857D01*
X147693714Y-86592571D01*
X147693714Y-86849714D01*
X147650857Y-86935428D01*
X147607999Y-86978285D01*
X147522285Y-87021142D01*
X147350857Y-87021142D01*
X147265142Y-86978285D01*
X148465142Y-87021142D02*
X148465142Y-86549714D01*
X148422285Y-86464000D01*
X148336571Y-86421142D01*
X148165142Y-86421142D01*
X148079428Y-86464000D01*
X148465142Y-86978285D02*
X148379428Y-87021142D01*
X148165142Y-87021142D01*
X148079428Y-86978285D01*
X148036571Y-86892571D01*
X148036571Y-86806857D01*
X148079428Y-86721142D01*
X148165142Y-86678285D01*
X148379428Y-86678285D01*
X148465142Y-86635428D01*
X149279428Y-87021142D02*
X149279428Y-86549714D01*
X149236571Y-86464000D01*
X149150857Y-86421142D01*
X148979428Y-86421142D01*
X148893714Y-86464000D01*
X149279428Y-86978285D02*
X149193714Y-87021142D01*
X148979428Y-87021142D01*
X148893714Y-86978285D01*
X148850857Y-86892571D01*
X148850857Y-86806857D01*
X148893714Y-86721142D01*
X148979428Y-86678285D01*
X149193714Y-86678285D01*
X149279428Y-86635428D01*
X149708000Y-86421142D02*
X149708000Y-87021142D01*
X149708000Y-86506857D02*
X149750857Y-86464000D01*
X149836571Y-86421142D01*
X149965142Y-86421142D01*
X150050857Y-86464000D01*
X150093714Y-86549714D01*
X150093714Y-87021142D01*
X150908000Y-87021142D02*
X150908000Y-86121142D01*
X150908000Y-86978285D02*
X150822285Y-87021142D01*
X150650857Y-87021142D01*
X150565142Y-86978285D01*
X150522285Y-86935428D01*
X150479428Y-86849714D01*
X150479428Y-86592571D01*
X150522285Y-86506857D01*
X150565142Y-86464000D01*
X150650857Y-86421142D01*
X150822285Y-86421142D01*
X150908000Y-86464000D01*
X151336571Y-87021142D02*
X151336571Y-86421142D01*
X151336571Y-86592571D02*
X151379428Y-86506857D01*
X151422285Y-86464000D01*
X151508000Y-86421142D01*
X151593714Y-86421142D01*
X151808000Y-86421142D02*
X152022285Y-87021142D01*
X152236571Y-86421142D02*
X152022285Y-87021142D01*
X151936571Y-87235428D01*
X151893714Y-87278285D01*
X151808000Y-87321142D01*
X152536571Y-86978285D02*
X152622285Y-87021142D01*
X152793714Y-87021142D01*
X152879428Y-86978285D01*
X152922285Y-86892571D01*
X152922285Y-86849714D01*
X152879428Y-86764000D01*
X152793714Y-86721142D01*
X152665142Y-86721142D01*
X152579428Y-86678285D01*
X152536571Y-86592571D01*
X152536571Y-86549714D01*
X152579428Y-86464000D01*
X152665142Y-86421142D01*
X152793714Y-86421142D01*
X152879428Y-86464000D01*
X153650857Y-86978285D02*
X153565142Y-87021142D01*
X153393714Y-87021142D01*
X153308000Y-86978285D01*
X153265142Y-86892571D01*
X153265142Y-86549714D01*
X153308000Y-86464000D01*
X153393714Y-86421142D01*
X153565142Y-86421142D01*
X153650857Y-86464000D01*
X153693714Y-86549714D01*
X153693714Y-86635428D01*
X153265142Y-86721142D01*
X154079428Y-87021142D02*
X154079428Y-86121142D01*
X154165142Y-86678285D02*
X154422285Y-87021142D01*
X154422285Y-86421142D02*
X154079428Y-86764000D01*
X154808000Y-86935428D02*
X154850857Y-86978285D01*
X154808000Y-87021142D01*
X154765142Y-86978285D01*
X154808000Y-86935428D01*
X154808000Y-87021142D01*
X155622285Y-86978285D02*
X155536571Y-87021142D01*
X155365142Y-87021142D01*
X155279428Y-86978285D01*
X155236571Y-86935428D01*
X155193714Y-86849714D01*
X155193714Y-86592571D01*
X155236571Y-86506857D01*
X155279428Y-86464000D01*
X155365142Y-86421142D01*
X155536571Y-86421142D01*
X155622285Y-86464000D01*
X155922285Y-86421142D02*
X156393714Y-86421142D01*
X155922285Y-87021142D01*
X156393714Y-87021142D01*
X138089714Y-84752571D02*
X138089714Y-83252571D01*
X138661142Y-83252571D01*
X138804000Y-83324000D01*
X138875428Y-83395428D01*
X138946857Y-83538285D01*
X138946857Y-83752571D01*
X138875428Y-83895428D01*
X138804000Y-83966857D01*
X138661142Y-84038285D01*
X138089714Y-84038285D01*
X139804000Y-84752571D02*
X139661142Y-84681142D01*
X139589714Y-84538285D01*
X139589714Y-83252571D01*
X140946857Y-84681142D02*
X140804000Y-84752571D01*
X140518285Y-84752571D01*
X140375428Y-84681142D01*
X140304000Y-84538285D01*
X140304000Y-83966857D01*
X140375428Y-83824000D01*
X140518285Y-83752571D01*
X140804000Y-83752571D01*
X140946857Y-83824000D01*
X141018285Y-83966857D01*
X141018285Y-84109714D01*
X140304000Y-84252571D01*
X141446857Y-83752571D02*
X142018285Y-83752571D01*
X141661142Y-83252571D02*
X141661142Y-84538285D01*
X141732571Y-84681142D01*
X141875428Y-84752571D01*
X142018285Y-84752571D01*
X143161142Y-84752571D02*
X143161142Y-83966857D01*
X143089714Y-83824000D01*
X142946857Y-83752571D01*
X142661142Y-83752571D01*
X142518285Y-83824000D01*
X143161142Y-84681142D02*
X143018285Y-84752571D01*
X142661142Y-84752571D01*
X142518285Y-84681142D01*
X142446857Y-84538285D01*
X142446857Y-84395428D01*
X142518285Y-84252571D01*
X142661142Y-84181142D01*
X143018285Y-84181142D01*
X143161142Y-84109714D01*
X144518285Y-84681142D02*
X144375428Y-84752571D01*
X144089714Y-84752571D01*
X143946857Y-84681142D01*
X143875428Y-84609714D01*
X143804000Y-84466857D01*
X143804000Y-84038285D01*
X143875428Y-83895428D01*
X143946857Y-83824000D01*
X144089714Y-83752571D01*
X144375428Y-83752571D01*
X144518285Y-83824000D01*
X145161142Y-84752571D02*
X145161142Y-83252571D01*
X145304000Y-84181142D02*
X145732571Y-84752571D01*
X145732571Y-83752571D02*
X145161142Y-84324000D01*
X147018285Y-84752571D02*
X147018285Y-83966857D01*
X146946857Y-83824000D01*
X146804000Y-83752571D01*
X146518285Y-83752571D01*
X146375428Y-83824000D01*
X147018285Y-84681142D02*
X146875428Y-84752571D01*
X146518285Y-84752571D01*
X146375428Y-84681142D01*
X146304000Y-84538285D01*
X146304000Y-84395428D01*
X146375428Y-84252571D01*
X146518285Y-84181142D01*
X146875428Y-84181142D01*
X147018285Y-84109714D01*
X148875428Y-84752571D02*
X148875428Y-83252571D01*
X148875428Y-83824000D02*
X149018285Y-83752571D01*
X149304000Y-83752571D01*
X149446857Y-83824000D01*
X149518285Y-83895428D01*
X149589714Y-84038285D01*
X149589714Y-84466857D01*
X149518285Y-84609714D01*
X149446857Y-84681142D01*
X149304000Y-84752571D01*
X149018285Y-84752571D01*
X148875428Y-84681142D01*
X150446857Y-84752571D02*
X150304000Y-84681142D01*
X150232571Y-84609714D01*
X150161142Y-84466857D01*
X150161142Y-84038285D01*
X150232571Y-83895428D01*
X150304000Y-83824000D01*
X150446857Y-83752571D01*
X150661142Y-83752571D01*
X150804000Y-83824000D01*
X150875428Y-83895428D01*
X150946857Y-84038285D01*
X150946857Y-84466857D01*
X150875428Y-84609714D01*
X150804000Y-84681142D01*
X150661142Y-84752571D01*
X150446857Y-84752571D01*
X152232571Y-84752571D02*
X152232571Y-83966857D01*
X152161142Y-83824000D01*
X152018285Y-83752571D01*
X151732571Y-83752571D01*
X151589714Y-83824000D01*
X152232571Y-84681142D02*
X152089714Y-84752571D01*
X151732571Y-84752571D01*
X151589714Y-84681142D01*
X151518285Y-84538285D01*
X151518285Y-84395428D01*
X151589714Y-84252571D01*
X151732571Y-84181142D01*
X152089714Y-84181142D01*
X152232571Y-84109714D01*
X152946857Y-84752571D02*
X152946857Y-83752571D01*
X152946857Y-84038285D02*
X153018285Y-83895428D01*
X153089714Y-83824000D01*
X153232571Y-83752571D01*
X153375428Y-83752571D01*
X154518285Y-84752571D02*
X154518285Y-83252571D01*
X154518285Y-84681142D02*
X154375428Y-84752571D01*
X154089714Y-84752571D01*
X153946857Y-84681142D01*
X153875428Y-84609714D01*
X153804000Y-84466857D01*
X153804000Y-84038285D01*
X153875428Y-83895428D01*
X153946857Y-83824000D01*
X154089714Y-83752571D01*
X154375428Y-83752571D01*
X154518285Y-83824000D01*
D11*
G04 #@! TO.C,U1*
X148672000Y-132065000D02*
X152572000Y-132065000D01*
X148672000Y-127015000D02*
X152572000Y-127015000D01*
D12*
X146682000Y-127235000D02*
G75*
G03X146682000Y-127235000I-100000J0D01*
G01*
D13*
G04 #@! TO.C,JP2*
X151908000Y-103254000D02*
X151908000Y-100454000D01*
X151908000Y-100454000D02*
X153908000Y-100454000D01*
X153908000Y-100454000D02*
X153908000Y-103254000D01*
X153908000Y-103254000D02*
X151908000Y-103254000D01*
G04 #@! TO.C,Pins1*
X139894000Y-64322000D02*
X139894000Y-62992000D01*
X141224000Y-64322000D02*
X139894000Y-64322000D01*
X142494000Y-64322000D02*
X142494000Y-61662000D01*
X142494000Y-61662000D02*
X152714000Y-61662000D01*
X142494000Y-64322000D02*
X152714000Y-64322000D01*
X152714000Y-64322000D02*
X152714000Y-61662000D01*
D11*
G04 #@! TO.C,SW2*
X155166000Y-69088000D02*
G75*
G03X155166000Y-69088000I-1750000J0D01*
G01*
X150416000Y-66088000D02*
X150416260Y-72085200D01*
X156416000Y-66088000D02*
X150416000Y-66088000D01*
X156416000Y-72088000D02*
X156416000Y-66088000D01*
X150423880Y-72088000D02*
X156416000Y-72088000D01*
D14*
X147266000Y-66838000D02*
G75*
G03X147266000Y-66838000I-200000J0D01*
G01*
D13*
G04 #@! TO.C,ESP1*
X142748000Y-79248000D02*
X142748000Y-70358000D01*
X150368000Y-79248000D02*
X142748000Y-79248000D01*
X150368000Y-70358000D02*
X150368000Y-79248000D01*
X142748000Y-70358000D02*
X150368000Y-70358000D01*
X156718000Y-80518000D02*
X156718000Y-75438000D01*
X154178000Y-80518000D02*
X156718000Y-80518000D01*
X154178000Y-75438000D02*
X154178000Y-80518000D01*
X156718000Y-75438000D02*
X154178000Y-75438000D01*
X138938000Y-75438000D02*
X136398000Y-75438000D01*
X138938000Y-80518000D02*
X138938000Y-75438000D01*
X136398000Y-80518000D02*
X138938000Y-80518000D01*
X136398000Y-75438000D02*
X136398000Y-80518000D01*
X156718000Y-85598000D02*
X156718000Y-118618000D01*
X136398000Y-85598000D02*
X156718000Y-85598000D01*
X136398000Y-118618000D02*
X136398000Y-85598000D01*
X156718000Y-118618000D02*
X136398000Y-118618000D01*
X136398000Y-72898000D02*
X133858000Y-75438000D01*
X159258000Y-75438000D02*
X156718000Y-72898000D01*
X133858000Y-75438000D02*
X133858000Y-124968000D01*
X156718000Y-72898000D02*
X136398000Y-72898000D01*
X159258000Y-124968000D02*
X159258000Y-75438000D01*
X133858000Y-124968000D02*
X159258000Y-124968000D01*
G04 #@! TO.C,L1*
X149092000Y-118510000D02*
X149092000Y-117710000D01*
X154692000Y-118510000D02*
X154692000Y-117710000D01*
D12*
G04 #@! TO.C,U3*
X139718000Y-130446000D02*
G75*
G03X139718000Y-130446000I-100000J0D01*
G01*
D11*
X139428000Y-127676000D02*
X139428000Y-123276000D01*
X143528000Y-127676000D02*
X143528000Y-123276000D01*
G04 #@! TO.C,SW1*
X141196000Y-69088000D02*
G75*
G03X141196000Y-69088000I-1750000J0D01*
G01*
X136446000Y-66088000D02*
X136446260Y-72085200D01*
X142446000Y-66088000D02*
X136446000Y-66088000D01*
X142446000Y-72088000D02*
X142446000Y-66088000D01*
X136453880Y-72088000D02*
X142446000Y-72088000D01*
D14*
X133296000Y-66838000D02*
G75*
G03X133296000Y-66838000I-200000J0D01*
G01*
D13*
G04 #@! TO.C,C5*
X155356779Y-125986000D02*
X155031221Y-125986000D01*
X155356779Y-124966000D02*
X155031221Y-124966000D01*
D12*
G04 #@! TO.C,U2*
X134638000Y-130446000D02*
G75*
G03X134638000Y-130446000I-100000J0D01*
G01*
D11*
X134348000Y-127676000D02*
X134348000Y-123276000D01*
X138448000Y-127676000D02*
X138448000Y-123276000D01*
D13*
G04 #@! TO.C,R11*
X139283221Y-120398000D02*
X139608779Y-120398000D01*
X139283221Y-119378000D02*
X139608779Y-119378000D01*
G04 #@! TO.C,R10*
X136052779Y-119378000D02*
X135727221Y-119378000D01*
X136052779Y-120398000D02*
X135727221Y-120398000D01*
G04 #@! TO.C,R9*
X148338000Y-76616779D02*
X148338000Y-76291221D01*
X147318000Y-76616779D02*
X147318000Y-76291221D01*
G04 #@! TO.C,R8*
X145290000Y-76616779D02*
X145290000Y-76291221D01*
X144270000Y-76616779D02*
X144270000Y-76291221D01*
G04 #@! TO.C,R7*
X137666000Y-135981221D02*
X137666000Y-136306779D01*
X138686000Y-135981221D02*
X138686000Y-136306779D01*
G04 #@! TO.C,R6*
X136396000Y-132679221D02*
X136396000Y-133004779D01*
X137416000Y-132679221D02*
X137416000Y-133004779D01*
G04 #@! TO.C,R5*
X156626779Y-126744000D02*
X156301221Y-126744000D01*
X156626779Y-127764000D02*
X156301221Y-127764000D01*
G04 #@! TO.C,R4*
X156970000Y-121477721D02*
X156970000Y-121803279D01*
X157990000Y-121477721D02*
X157990000Y-121803279D01*
G04 #@! TO.C,R3*
X156047221Y-132844000D02*
X156372779Y-132844000D01*
X156047221Y-131824000D02*
X156372779Y-131824000D01*
G04 #@! TO.C,R2*
X133792279Y-63244000D02*
X133466721Y-63244000D01*
X133792279Y-64264000D02*
X133466721Y-64264000D01*
G04 #@! TO.C,R1*
X158841221Y-64264000D02*
X159166779Y-64264000D01*
X158841221Y-63244000D02*
X159166779Y-63244000D01*
G04 #@! TO.C,POLYFUSE1*
X150462064Y-135488000D02*
X149257936Y-135488000D01*
X150462064Y-137308000D02*
X149257936Y-137308000D01*
G04 #@! TO.C,POWER_&_FINN_INPUT1*
X148818000Y-142748000D02*
G75*
G03X148818000Y-142748000I-2180000J0D01*
G01*
X153818000Y-142748000D02*
G75*
G03X153818000Y-142748000I-2180000J0D01*
G01*
X158818000Y-142748000D02*
G75*
G03X158818000Y-142748000I-2180000J0D01*
G01*
X144078000Y-147348000D02*
X159198000Y-147348000D01*
X144078000Y-146248000D02*
X159198000Y-146248000D01*
X144078000Y-138688000D02*
X159198000Y-138688000D01*
X144078000Y-147808000D02*
X159198000Y-147808000D01*
X144078000Y-138688000D02*
X144078000Y-147808000D01*
X159198000Y-138688000D02*
X159198000Y-147808000D01*
X148292000Y-141360000D02*
X148185000Y-141467000D01*
X145356000Y-144295000D02*
X145250000Y-144402000D01*
X148026000Y-141094000D02*
X147919000Y-141201000D01*
X145090000Y-144029000D02*
X144984000Y-144136000D01*
X153292000Y-141360000D02*
X152897000Y-141756000D01*
X150631000Y-144022000D02*
X150251000Y-144402000D01*
X153026000Y-141094000D02*
X152646000Y-141474000D01*
X150380000Y-143740000D02*
X149985000Y-144136000D01*
X158292000Y-141360000D02*
X157897000Y-141756000D01*
X155631000Y-144022000D02*
X155251000Y-144402000D01*
X158026000Y-141094000D02*
X157646000Y-141474000D01*
X155380000Y-143740000D02*
X154985000Y-144136000D01*
X143838000Y-147408000D02*
X143838000Y-148048000D01*
X143838000Y-148048000D02*
X144238000Y-148048000D01*
G04 #@! TO.C,STOP_INPUT1*
X138578000Y-142748000D02*
G75*
G03X138578000Y-142748000I-2180000J0D01*
G01*
X143578000Y-142748000D02*
G75*
G03X143578000Y-142748000I-2180000J0D01*
G01*
X133838000Y-147348000D02*
X143958000Y-147348000D01*
X133838000Y-146248000D02*
X143958000Y-146248000D01*
X133838000Y-138688000D02*
X143958000Y-138688000D01*
X133838000Y-147808000D02*
X143958000Y-147808000D01*
X133838000Y-138688000D02*
X133838000Y-147808000D01*
X143958000Y-138688000D02*
X143958000Y-147808000D01*
X138052000Y-141360000D02*
X137945000Y-141467000D01*
X135116000Y-144295000D02*
X135010000Y-144402000D01*
X137786000Y-141094000D02*
X137679000Y-141201000D01*
X134850000Y-144029000D02*
X134744000Y-144136000D01*
X143052000Y-141360000D02*
X142657000Y-141756000D01*
X140391000Y-144022000D02*
X140011000Y-144402000D01*
X142786000Y-141094000D02*
X142406000Y-141474000D01*
X140140000Y-143740000D02*
X139745000Y-144136000D01*
X133598000Y-147408000D02*
X133598000Y-148048000D01*
X133598000Y-148048000D02*
X133998000Y-148048000D01*
D15*
G04 #@! TO.C,D5*
X148626000Y-122144000D02*
X153126000Y-122144000D01*
X153126000Y-124744000D02*
X148626000Y-124744000D01*
D13*
G04 #@! TO.C,D4*
X138899000Y-63019000D02*
X136614000Y-63019000D01*
X138899000Y-64489000D02*
X138899000Y-63019000D01*
X136614000Y-64489000D02*
X138899000Y-64489000D01*
G04 #@! TO.C,D3*
X153709000Y-64489000D02*
X155994000Y-64489000D01*
X153709000Y-63019000D02*
X153709000Y-64489000D01*
X155994000Y-63019000D02*
X153709000Y-63019000D01*
D12*
G04 #@! TO.C,D2*
X147610000Y-135636000D02*
G75*
G03X147610000Y-135636000I-100000J0D01*
G01*
D11*
X141350000Y-133856000D02*
X141350000Y-134262000D01*
X145670000Y-133856000D02*
X141350000Y-133856000D01*
X145670000Y-134262000D02*
X145670000Y-133856000D01*
X141350000Y-137416000D02*
X141350000Y-137010000D01*
X145670000Y-137416000D02*
X141350000Y-137416000D01*
X145670000Y-137010000D02*
X145670000Y-137416000D01*
D15*
G04 #@! TO.C,D1*
X158206000Y-137698000D02*
X153706000Y-137698000D01*
X153706000Y-135098000D02*
X158206000Y-135098000D01*
D13*
G04 #@! TO.C,C8*
X148427221Y-74170000D02*
X148752779Y-74170000D01*
X148427221Y-73150000D02*
X148752779Y-73150000D01*
G04 #@! TO.C,C7*
X144180779Y-73150000D02*
X143855221Y-73150000D01*
X144180779Y-74170000D02*
X143855221Y-74170000D01*
G04 #@! TO.C,C6*
X152308779Y-113540000D02*
X151983221Y-113540000D01*
X152308779Y-112520000D02*
X151983221Y-112520000D01*
G04 #@! TO.C,C4*
X145540000Y-131663221D02*
X145540000Y-131988779D01*
X146560000Y-131663221D02*
X146560000Y-131988779D01*
G04 #@! TO.C,C3*
X157736000Y-129956779D02*
X157736000Y-129631221D01*
X156716000Y-129956779D02*
X156716000Y-129631221D01*
G04 #@! TO.C,C2*
X155958000Y-129956779D02*
X155958000Y-129631221D01*
X154938000Y-129956779D02*
X154938000Y-129631221D01*
G04 #@! TO.C,C1*
X146198000Y-128110064D02*
X146198000Y-126905936D01*
X144378000Y-128110064D02*
X144378000Y-126905936D01*
G04 #@! TO.C,ESP1*
D10*
X137421904Y-91448000D02*
X137326666Y-91400380D01*
X137183809Y-91400380D01*
X137040952Y-91448000D01*
X136945714Y-91543238D01*
X136898095Y-91638476D01*
X136850476Y-91828952D01*
X136850476Y-91971809D01*
X136898095Y-92162285D01*
X136945714Y-92257523D01*
X137040952Y-92352761D01*
X137183809Y-92400380D01*
X137279047Y-92400380D01*
X137421904Y-92352761D01*
X137469523Y-92305142D01*
X137469523Y-91971809D01*
X137279047Y-91971809D01*
X153701904Y-88860380D02*
X154320952Y-88860380D01*
X153987619Y-89241333D01*
X154130476Y-89241333D01*
X154225714Y-89288952D01*
X154273333Y-89336571D01*
X154320952Y-89431809D01*
X154320952Y-89669904D01*
X154273333Y-89765142D01*
X154225714Y-89812761D01*
X154130476Y-89860380D01*
X153844761Y-89860380D01*
X153749523Y-89812761D01*
X153701904Y-89765142D01*
X154606666Y-88860380D02*
X154940000Y-89860380D01*
X155273333Y-88860380D01*
X155511428Y-88860380D02*
X156130476Y-88860380D01*
X155797142Y-89241333D01*
X155940000Y-89241333D01*
X156035238Y-89288952D01*
X156082857Y-89336571D01*
X156130476Y-89431809D01*
X156130476Y-89669904D01*
X156082857Y-89765142D01*
X156035238Y-89812761D01*
X155940000Y-89860380D01*
X155654285Y-89860380D01*
X155559047Y-89812761D01*
X155511428Y-89765142D01*
X136937904Y-116800380D02*
X137556952Y-116800380D01*
X137223619Y-117181333D01*
X137366476Y-117181333D01*
X137461714Y-117228952D01*
X137509333Y-117276571D01*
X137556952Y-117371809D01*
X137556952Y-117609904D01*
X137509333Y-117705142D01*
X137461714Y-117752761D01*
X137366476Y-117800380D01*
X137080761Y-117800380D01*
X136985523Y-117752761D01*
X136937904Y-117705142D01*
X137842666Y-116800380D02*
X138176000Y-117800380D01*
X138509333Y-116800380D01*
X138747428Y-116800380D02*
X139366476Y-116800380D01*
X139033142Y-117181333D01*
X139176000Y-117181333D01*
X139271238Y-117228952D01*
X139318857Y-117276571D01*
X139366476Y-117371809D01*
X139366476Y-117609904D01*
X139318857Y-117705142D01*
X139271238Y-117752761D01*
X139176000Y-117800380D01*
X138890285Y-117800380D01*
X138795047Y-117752761D01*
X138747428Y-117705142D01*
X136858476Y-114260380D02*
X137477523Y-114260380D01*
X137144190Y-114641333D01*
X137287047Y-114641333D01*
X137382285Y-114688952D01*
X137429904Y-114736571D01*
X137477523Y-114831809D01*
X137477523Y-115069904D01*
X137429904Y-115165142D01*
X137382285Y-115212761D01*
X137287047Y-115260380D01*
X137001333Y-115260380D01*
X136906095Y-115212761D01*
X136858476Y-115165142D01*
X138334666Y-114260380D02*
X138144190Y-114260380D01*
X138048952Y-114308000D01*
X138001333Y-114355619D01*
X137906095Y-114498476D01*
X137858476Y-114688952D01*
X137858476Y-115069904D01*
X137906095Y-115165142D01*
X137953714Y-115212761D01*
X138048952Y-115260380D01*
X138239428Y-115260380D01*
X138334666Y-115212761D01*
X138382285Y-115165142D01*
X138429904Y-115069904D01*
X138429904Y-114831809D01*
X138382285Y-114736571D01*
X138334666Y-114688952D01*
X138239428Y-114641333D01*
X138048952Y-114641333D01*
X137953714Y-114688952D01*
X137906095Y-114736571D01*
X137858476Y-114831809D01*
X136858476Y-111720380D02*
X137477523Y-111720380D01*
X137144190Y-112101333D01*
X137287047Y-112101333D01*
X137382285Y-112148952D01*
X137429904Y-112196571D01*
X137477523Y-112291809D01*
X137477523Y-112529904D01*
X137429904Y-112625142D01*
X137382285Y-112672761D01*
X137287047Y-112720380D01*
X137001333Y-112720380D01*
X136906095Y-112672761D01*
X136858476Y-112625142D01*
X137810857Y-111720380D02*
X138477523Y-111720380D01*
X138048952Y-112720380D01*
X136858476Y-109180380D02*
X137477523Y-109180380D01*
X137144190Y-109561333D01*
X137287047Y-109561333D01*
X137382285Y-109608952D01*
X137429904Y-109656571D01*
X137477523Y-109751809D01*
X137477523Y-109989904D01*
X137429904Y-110085142D01*
X137382285Y-110132761D01*
X137287047Y-110180380D01*
X137001333Y-110180380D01*
X136906095Y-110132761D01*
X136858476Y-110085142D01*
X138048952Y-109608952D02*
X137953714Y-109561333D01*
X137906095Y-109513714D01*
X137858476Y-109418476D01*
X137858476Y-109370857D01*
X137906095Y-109275619D01*
X137953714Y-109228000D01*
X138048952Y-109180380D01*
X138239428Y-109180380D01*
X138334666Y-109228000D01*
X138382285Y-109275619D01*
X138429904Y-109370857D01*
X138429904Y-109418476D01*
X138382285Y-109513714D01*
X138334666Y-109561333D01*
X138239428Y-109608952D01*
X138048952Y-109608952D01*
X137953714Y-109656571D01*
X137906095Y-109704190D01*
X137858476Y-109799428D01*
X137858476Y-109989904D01*
X137906095Y-110085142D01*
X137953714Y-110132761D01*
X138048952Y-110180380D01*
X138239428Y-110180380D01*
X138334666Y-110132761D01*
X138382285Y-110085142D01*
X138429904Y-109989904D01*
X138429904Y-109799428D01*
X138382285Y-109704190D01*
X138334666Y-109656571D01*
X138239428Y-109608952D01*
X136858476Y-106640380D02*
X137477523Y-106640380D01*
X137144190Y-107021333D01*
X137287047Y-107021333D01*
X137382285Y-107068952D01*
X137429904Y-107116571D01*
X137477523Y-107211809D01*
X137477523Y-107449904D01*
X137429904Y-107545142D01*
X137382285Y-107592761D01*
X137287047Y-107640380D01*
X137001333Y-107640380D01*
X136906095Y-107592761D01*
X136858476Y-107545142D01*
X137953714Y-107640380D02*
X138144190Y-107640380D01*
X138239428Y-107592761D01*
X138287047Y-107545142D01*
X138382285Y-107402285D01*
X138429904Y-107211809D01*
X138429904Y-106830857D01*
X138382285Y-106735619D01*
X138334666Y-106688000D01*
X138239428Y-106640380D01*
X138048952Y-106640380D01*
X137953714Y-106688000D01*
X137906095Y-106735619D01*
X137858476Y-106830857D01*
X137858476Y-107068952D01*
X137906095Y-107164190D01*
X137953714Y-107211809D01*
X138048952Y-107259428D01*
X138239428Y-107259428D01*
X138334666Y-107211809D01*
X138382285Y-107164190D01*
X138429904Y-107068952D01*
X136858476Y-104100380D02*
X137477523Y-104100380D01*
X137144190Y-104481333D01*
X137287047Y-104481333D01*
X137382285Y-104528952D01*
X137429904Y-104576571D01*
X137477523Y-104671809D01*
X137477523Y-104909904D01*
X137429904Y-105005142D01*
X137382285Y-105052761D01*
X137287047Y-105100380D01*
X137001333Y-105100380D01*
X136906095Y-105052761D01*
X136858476Y-105005142D01*
X137858476Y-104195619D02*
X137906095Y-104148000D01*
X138001333Y-104100380D01*
X138239428Y-104100380D01*
X138334666Y-104148000D01*
X138382285Y-104195619D01*
X138429904Y-104290857D01*
X138429904Y-104386095D01*
X138382285Y-104528952D01*
X137810857Y-105100380D01*
X138429904Y-105100380D01*
X136858476Y-101560380D02*
X137477523Y-101560380D01*
X137144190Y-101941333D01*
X137287047Y-101941333D01*
X137382285Y-101988952D01*
X137429904Y-102036571D01*
X137477523Y-102131809D01*
X137477523Y-102369904D01*
X137429904Y-102465142D01*
X137382285Y-102512761D01*
X137287047Y-102560380D01*
X137001333Y-102560380D01*
X136906095Y-102512761D01*
X136858476Y-102465142D01*
X137810857Y-101560380D02*
X138429904Y-101560380D01*
X138096571Y-101941333D01*
X138239428Y-101941333D01*
X138334666Y-101988952D01*
X138382285Y-102036571D01*
X138429904Y-102131809D01*
X138429904Y-102369904D01*
X138382285Y-102465142D01*
X138334666Y-102512761D01*
X138239428Y-102560380D01*
X137953714Y-102560380D01*
X137858476Y-102512761D01*
X137810857Y-102465142D01*
X136906095Y-99115619D02*
X136953714Y-99068000D01*
X137048952Y-99020380D01*
X137287047Y-99020380D01*
X137382285Y-99068000D01*
X137429904Y-99115619D01*
X137477523Y-99210857D01*
X137477523Y-99306095D01*
X137429904Y-99448952D01*
X136858476Y-100020380D01*
X137477523Y-100020380D01*
X138382285Y-99020380D02*
X137906095Y-99020380D01*
X137858476Y-99496571D01*
X137906095Y-99448952D01*
X138001333Y-99401333D01*
X138239428Y-99401333D01*
X138334666Y-99448952D01*
X138382285Y-99496571D01*
X138429904Y-99591809D01*
X138429904Y-99829904D01*
X138382285Y-99925142D01*
X138334666Y-99972761D01*
X138239428Y-100020380D01*
X138001333Y-100020380D01*
X137906095Y-99972761D01*
X137858476Y-99925142D01*
X136906095Y-96575619D02*
X136953714Y-96528000D01*
X137048952Y-96480380D01*
X137287047Y-96480380D01*
X137382285Y-96528000D01*
X137429904Y-96575619D01*
X137477523Y-96670857D01*
X137477523Y-96766095D01*
X137429904Y-96908952D01*
X136858476Y-97480380D01*
X137477523Y-97480380D01*
X138334666Y-96480380D02*
X138144190Y-96480380D01*
X138048952Y-96528000D01*
X138001333Y-96575619D01*
X137906095Y-96718476D01*
X137858476Y-96908952D01*
X137858476Y-97289904D01*
X137906095Y-97385142D01*
X137953714Y-97432761D01*
X138048952Y-97480380D01*
X138239428Y-97480380D01*
X138334666Y-97432761D01*
X138382285Y-97385142D01*
X138429904Y-97289904D01*
X138429904Y-97051809D01*
X138382285Y-96956571D01*
X138334666Y-96908952D01*
X138239428Y-96861333D01*
X138048952Y-96861333D01*
X137953714Y-96908952D01*
X137906095Y-96956571D01*
X137858476Y-97051809D01*
X136906095Y-94035619D02*
X136953714Y-93988000D01*
X137048952Y-93940380D01*
X137287047Y-93940380D01*
X137382285Y-93988000D01*
X137429904Y-94035619D01*
X137477523Y-94130857D01*
X137477523Y-94226095D01*
X137429904Y-94368952D01*
X136858476Y-94940380D01*
X137477523Y-94940380D01*
X137810857Y-93940380D02*
X138477523Y-93940380D01*
X138048952Y-94940380D01*
X137477523Y-88860380D02*
X137001333Y-88860380D01*
X136953714Y-89336571D01*
X137001333Y-89288952D01*
X137096571Y-89241333D01*
X137334666Y-89241333D01*
X137429904Y-89288952D01*
X137477523Y-89336571D01*
X137525142Y-89431809D01*
X137525142Y-89669904D01*
X137477523Y-89765142D01*
X137429904Y-89812761D01*
X137334666Y-89860380D01*
X137096571Y-89860380D01*
X137001333Y-89812761D01*
X136953714Y-89765142D01*
X137810857Y-88860380D02*
X138144190Y-89860380D01*
X138477523Y-88860380D01*
X156217904Y-91448000D02*
X156122666Y-91400380D01*
X155979809Y-91400380D01*
X155836952Y-91448000D01*
X155741714Y-91543238D01*
X155694095Y-91638476D01*
X155646476Y-91828952D01*
X155646476Y-91971809D01*
X155694095Y-92162285D01*
X155741714Y-92257523D01*
X155836952Y-92352761D01*
X155979809Y-92400380D01*
X156075047Y-92400380D01*
X156217904Y-92352761D01*
X156265523Y-92305142D01*
X156265523Y-91971809D01*
X156075047Y-91971809D01*
X156217904Y-93988000D02*
X156122666Y-93940380D01*
X155979809Y-93940380D01*
X155836952Y-93988000D01*
X155741714Y-94083238D01*
X155694095Y-94178476D01*
X155646476Y-94368952D01*
X155646476Y-94511809D01*
X155694095Y-94702285D01*
X155741714Y-94797523D01*
X155836952Y-94892761D01*
X155979809Y-94940380D01*
X156075047Y-94940380D01*
X156217904Y-94892761D01*
X156265523Y-94845142D01*
X156265523Y-94511809D01*
X156075047Y-94511809D01*
X155257523Y-97480380D02*
X154686095Y-97480380D01*
X154971809Y-97480380D02*
X154971809Y-96480380D01*
X154876571Y-96623238D01*
X154781333Y-96718476D01*
X154686095Y-96766095D01*
X155638476Y-96575619D02*
X155686095Y-96528000D01*
X155781333Y-96480380D01*
X156019428Y-96480380D01*
X156114666Y-96528000D01*
X156162285Y-96575619D01*
X156209904Y-96670857D01*
X156209904Y-96766095D01*
X156162285Y-96908952D01*
X155590857Y-97480380D01*
X156209904Y-97480380D01*
X155257523Y-100020380D02*
X154686095Y-100020380D01*
X154971809Y-100020380D02*
X154971809Y-99020380D01*
X154876571Y-99163238D01*
X154781333Y-99258476D01*
X154686095Y-99306095D01*
X155590857Y-99020380D02*
X156209904Y-99020380D01*
X155876571Y-99401333D01*
X156019428Y-99401333D01*
X156114666Y-99448952D01*
X156162285Y-99496571D01*
X156209904Y-99591809D01*
X156209904Y-99829904D01*
X156162285Y-99925142D01*
X156114666Y-99972761D01*
X156019428Y-100020380D01*
X155733714Y-100020380D01*
X155638476Y-99972761D01*
X155590857Y-99925142D01*
X155257523Y-102560380D02*
X154686095Y-102560380D01*
X154971809Y-102560380D02*
X154971809Y-101560380D01*
X154876571Y-101703238D01*
X154781333Y-101798476D01*
X154686095Y-101846095D01*
X156162285Y-101560380D02*
X155686095Y-101560380D01*
X155638476Y-102036571D01*
X155686095Y-101988952D01*
X155781333Y-101941333D01*
X156019428Y-101941333D01*
X156114666Y-101988952D01*
X156162285Y-102036571D01*
X156209904Y-102131809D01*
X156209904Y-102369904D01*
X156162285Y-102465142D01*
X156114666Y-102512761D01*
X156019428Y-102560380D01*
X155781333Y-102560380D01*
X155686095Y-102512761D01*
X155638476Y-102465142D01*
X155670285Y-104195619D02*
X155717904Y-104148000D01*
X155813142Y-104100380D01*
X156051238Y-104100380D01*
X156146476Y-104148000D01*
X156194095Y-104195619D01*
X156241714Y-104290857D01*
X156241714Y-104386095D01*
X156194095Y-104528952D01*
X155622666Y-105100380D01*
X156241714Y-105100380D01*
X155257523Y-107640380D02*
X154686095Y-107640380D01*
X154971809Y-107640380D02*
X154971809Y-106640380D01*
X154876571Y-106783238D01*
X154781333Y-106878476D01*
X154686095Y-106926095D01*
X155590857Y-106640380D02*
X156257523Y-106640380D01*
X155828952Y-107640380D01*
X154686095Y-109275619D02*
X154733714Y-109228000D01*
X154828952Y-109180380D01*
X155067047Y-109180380D01*
X155162285Y-109228000D01*
X155209904Y-109275619D01*
X155257523Y-109370857D01*
X155257523Y-109466095D01*
X155209904Y-109608952D01*
X154638476Y-110180380D01*
X155257523Y-110180380D01*
X155638476Y-109275619D02*
X155686095Y-109228000D01*
X155781333Y-109180380D01*
X156019428Y-109180380D01*
X156114666Y-109228000D01*
X156162285Y-109275619D01*
X156209904Y-109370857D01*
X156209904Y-109466095D01*
X156162285Y-109608952D01*
X155590857Y-110180380D01*
X156209904Y-110180380D01*
X154686095Y-111815619D02*
X154733714Y-111768000D01*
X154828952Y-111720380D01*
X155067047Y-111720380D01*
X155162285Y-111768000D01*
X155209904Y-111815619D01*
X155257523Y-111910857D01*
X155257523Y-112006095D01*
X155209904Y-112148952D01*
X154638476Y-112720380D01*
X155257523Y-112720380D01*
X156209904Y-112720380D02*
X155638476Y-112720380D01*
X155924190Y-112720380D02*
X155924190Y-111720380D01*
X155828952Y-111863238D01*
X155733714Y-111958476D01*
X155638476Y-112006095D01*
X156217904Y-114308000D02*
X156122666Y-114260380D01*
X155979809Y-114260380D01*
X155836952Y-114308000D01*
X155741714Y-114403238D01*
X155694095Y-114498476D01*
X155646476Y-114688952D01*
X155646476Y-114831809D01*
X155694095Y-115022285D01*
X155741714Y-115117523D01*
X155836952Y-115212761D01*
X155979809Y-115260380D01*
X156075047Y-115260380D01*
X156217904Y-115212761D01*
X156265523Y-115165142D01*
X156265523Y-114831809D01*
X156075047Y-114831809D01*
X156217904Y-116848000D02*
X156122666Y-116800380D01*
X155979809Y-116800380D01*
X155836952Y-116848000D01*
X155741714Y-116943238D01*
X155694095Y-117038476D01*
X155646476Y-117228952D01*
X155646476Y-117371809D01*
X155694095Y-117562285D01*
X155741714Y-117657523D01*
X155836952Y-117752761D01*
X155979809Y-117800380D01*
X156075047Y-117800380D01*
X156217904Y-117752761D01*
X156265523Y-117705142D01*
X156265523Y-117371809D01*
X156075047Y-117371809D01*
G04 #@! TD*
M02*
