M48
; DRILL file {KiCad 5.1.5+dfsg1-2build2} date Wed Oct 21 19:02:22 2020
; FORMAT={-:-/ absolute / metric / decimal}
; #@! TF.CreationDate,2020-10-21T19:02:22+02:00
; #@! TF.GenerationSoftware,Kicad,Pcbnew,5.1.5+dfsg1-2build2
FMAT,2
METRIC
T1C0.650
T2C0.762
T3C1.000
T4C1.300
T5C2.700
%
G90
G05
T1
X143.002Y-132.842
X145.034Y-122.428
X145.034Y-123.952
X146.812Y-122.428
X146.812Y-123.952
X147.784Y-126.028
X148.336Y-132.842
X150.622Y-129.032
X150.622Y-130.81
X150.622Y-132.842
X152.908Y-132.842
X157.226Y-125.476
T2
X135.128Y-89.408
X135.128Y-91.948
X135.128Y-94.488
X135.128Y-97.028
X135.128Y-99.568
X135.128Y-102.108
X135.128Y-104.648
X135.128Y-107.188
X135.128Y-109.728
X135.128Y-112.268
X135.128Y-114.808
X135.128Y-117.348
X157.988Y-89.408
X157.988Y-91.948
X157.988Y-94.488
X157.988Y-97.028
X157.988Y-99.568
X157.988Y-102.108
X157.988Y-104.648
X157.988Y-107.188
X157.988Y-109.728
X157.988Y-112.268
X157.988Y-114.808
X157.988Y-117.348
T3
X141.224Y-62.992
X143.764Y-62.992
X146.304Y-62.992
X148.844Y-62.992
X151.384Y-62.992
T4
X146.638Y-142.748
X151.638Y-142.748
X156.638Y-142.748
X136.398Y-142.748
X141.398Y-142.748
T5
X146.558Y-99.568
T0
M30
